<svg width="81" height="73" viewBox="0 0 81 73" fill="none" xmlns="http://www.w3.org/2000/svg">
<g clip-path="url(#clip0_1142_562)">
<path d="M75.3351 0.666992H5.66481C2.90842 0.666992 0.665283 2.91667 0.665283 5.6811V57.0995C0.665283 59.8639 2.90842 62.1136 5.66481 62.1136H31.708L29.2748 65.9075L29.0086 65.9647C27.83 66.2126 26.9746 67.2802 26.9746 68.5004V70.8263H17.2227C16.8045 70.8263 16.4813 71.1695 16.4813 71.5698C16.4813 71.9702 16.8235 72.3134 17.2227 72.3134H63.8152C64.2335 72.3134 64.5566 71.9702 64.5566 71.5698C64.5566 71.1695 64.2145 70.8263 63.8152 70.8263H54.0633V68.5004C54.0633 67.2802 53.2079 66.2316 52.0293 65.9647L51.7631 65.9075L49.3299 62.1136H75.3731C78.1295 62.1136 80.3726 59.8639 80.3726 57.0995V5.6811C80.3726 2.91667 78.1295 0.666992 75.3731 0.666992H75.3351ZM52.5615 68.5004V70.8263H28.4573V68.5004C28.4573 67.8903 28.9516 67.4137 29.5409 67.4137H51.459C52.0673 67.4137 52.5425 67.9094 52.5425 68.5004H52.5615ZM49.9572 65.9075H31.0427L33.4759 62.1136H47.524L49.9572 65.9075ZM78.8519 57.1185C78.8519 59.0632 77.2741 60.6456 75.3351 60.6456H5.66481C3.72583 60.6456 2.14803 59.0632 2.14803 57.1185V53.8394H78.8328V57.1185H78.8519ZM78.8519 52.3332H2.16704V5.6811C2.16704 3.73646 3.74484 2.15406 5.68382 2.15406H75.3541C77.2931 2.15406 78.8709 3.73646 78.8709 5.6811V52.3332H78.8519Z" fill="white"/>
<path d="M29.541 66.7471C28.5715 66.7471 27.7731 67.5478 27.7731 68.5201V71.5133H53.2079V68.5201C53.2079 67.5478 52.4095 66.7471 51.4401 66.7471H29.522H29.541ZM51.4591 68.0816C51.6872 68.0816 51.8773 68.2723 51.8773 68.5011V70.1597H29.1037V68.5011C29.1037 68.2723 29.2938 68.0816 29.522 68.0816H51.4401H51.4591Z" fill="white"/>
<path d="M47.1629 61.4463H33.1148L32.7156 62.0564L31.1378 64.5158L29.8071 66.5748H51.1739L49.8433 64.5158L48.2655 62.0564L47.8663 61.4463H47.1439H47.1629ZM48.7407 65.2402H32.2784L33.8562 62.7808H47.1819L48.7597 65.2402H48.7407Z" fill="white"/>
<path d="M75.3351 0H5.66487C2.54729 0 0 2.55471 0 5.68138V57.0998C0 60.2264 2.54729 62.7811 5.66487 62.7811H30.4724L28.8566 65.3168C27.3929 65.6409 26.2903 66.9373 26.2903 68.5006V70.1593H17.2037C16.4243 70.1593 15.797 70.7885 15.797 71.5701C15.797 72.3518 16.4243 72.9809 17.2037 72.9809H63.7963C64.5757 72.9809 65.203 72.3518 65.203 71.5701C65.203 70.7885 64.5757 70.1593 63.7963 70.1593H54.7097V68.5006C54.7097 66.9373 53.6071 65.6218 52.1434 65.3168L50.5276 62.7811H75.3351C78.4527 62.7811 81 60.2264 81 57.0998V5.68138C81 2.55471 78.4527 0 75.3351 0ZM79.6693 57.1188C79.6693 59.521 77.7303 61.4657 75.3351 61.4657H48.0753L49.406 63.5247L51.0218 66.0603L51.326 66.5369L51.8773 66.6513C52.7517 66.842 53.398 67.6236 53.398 68.5197V71.5129H63.8153C63.8153 71.5129 63.8913 71.551 63.8913 71.5892C63.8913 71.6273 63.8533 71.6654 63.8153 71.6654H17.2037C17.2037 71.6654 17.1277 71.6273 17.1277 71.5892C17.1277 71.551 17.1657 71.5129 17.2037 71.5129H27.621V68.5197C27.621 67.6236 28.2483 66.8229 29.1418 66.6513L29.693 66.5369L29.9972 66.0603L31.613 63.5247L32.9437 61.4657H5.66487C3.26965 61.4657 1.33067 59.521 1.33067 57.1188V5.68138C1.33067 3.27919 3.26965 1.33455 5.66487 1.33455H75.3351C77.7303 1.33455 79.6693 3.27919 79.6693 5.68138V57.0998V57.1188Z" fill="white"/>
<path d="M75.3352 1.4873H5.6649C3.36474 1.4873 1.48279 3.37474 1.48279 5.68161V53.001H79.4983V5.68161C79.4983 3.37474 77.6163 1.4873 75.3162 1.4873H75.3352ZM78.1866 51.6665H2.83247V5.68161C2.83247 4.11828 4.10612 2.84092 5.6649 2.84092H75.3352C76.894 2.84092 78.1676 4.11828 78.1676 5.68161V51.6474L78.1866 51.6665Z" fill="white"/>
<path d="M2.83238 53.1533H1.50171V57.1188C1.50171 59.4257 3.38366 61.3132 5.68383 61.3132H75.3541C77.6543 61.3132 79.5362 59.4257 79.5362 57.1188V53.1533H2.83238ZM78.1865 57.1188C78.1865 58.6822 76.9129 59.9595 75.3541 59.9595H5.66482C4.10603 59.9595 2.83238 58.6822 2.83238 57.1188V54.5069H78.1865V57.1188Z" fill="white"/>
<path d="M29.5409 67.4141C28.9326 67.4141 28.4574 67.9097 28.4574 68.5198V70.8458H52.5616V68.5198C52.5616 67.9097 52.0673 67.4141 51.478 67.4141H29.56H29.5409ZM51.459 68.0813C51.6872 68.0813 51.8773 68.272 51.8773 68.5008V70.1594H29.1037V68.5008C29.1037 68.272 29.2938 68.0813 29.5219 68.0813H51.44H51.459Z" fill="white"/>
<path d="M47.7332 62.4379L47.5431 62.1328H33.495L33.3049 62.4379L31.7271 64.8972L31.0618 65.9268H49.9763L49.311 64.8972L47.7332 62.4379ZM32.2594 65.2404L33.8372 62.781H47.1629L48.7407 65.2404H32.2784H32.2594Z" fill="white"/>
<path d="M2.83245 53.8203H2.16711V57.0995C2.16711 59.0441 3.74491 60.6265 5.68389 60.6265H75.3542C77.2931 60.6265 78.8709 59.0441 78.8709 57.0995V53.8203H2.83245ZM78.1866 57.1186C78.1866 58.6819 76.9129 59.9593 75.3542 59.9593H5.66488C4.1061 59.9593 2.83245 58.6819 2.83245 57.1186V54.5067H78.1866V57.1186Z" fill="white"/>
<path d="M75.3351 0H5.66487C2.54729 0 0 2.55471 0 5.68138V57.0998C0 60.2264 2.54729 62.7811 5.66487 62.7811H30.4724L28.8566 65.3168C27.3929 65.6409 26.2903 66.9373 26.2903 68.5006V70.1593H17.2037C16.4243 70.1593 15.797 70.7885 15.797 71.5701C15.797 72.3518 16.4243 72.9809 17.2037 72.9809H63.7963C64.5757 72.9809 65.203 72.3518 65.203 71.5701C65.203 70.7885 64.5757 70.1593 63.7963 70.1593H54.7097V68.5006C54.7097 66.9373 53.6071 65.6218 52.1434 65.3168L50.5276 62.7811H75.3351C78.4527 62.7811 81 60.2264 81 57.0998V5.68138C81 2.55471 78.4527 0 75.3351 0ZM80.3347 57.1188C80.3347 59.8833 78.0915 62.1329 75.3351 62.1329H49.292L49.9573 63.1624L51.5731 65.6981L51.7252 65.9269L51.9913 65.9841C53.1699 66.2319 54.0253 67.2995 54.0253 68.5197V70.8456H63.7773C64.1955 70.8456 64.5187 71.1888 64.5187 71.5892C64.5187 71.9895 64.1765 72.3327 63.7773 72.3327H17.2037C16.7855 72.3327 16.4623 71.9895 16.4623 71.5892C16.4623 71.1888 16.8045 70.8456 17.2037 70.8456H26.9556V68.5197C26.9556 67.2995 27.8111 66.251 28.9897 65.9841L29.2558 65.9269L29.4079 65.6981L31.0237 63.1624L31.689 62.1329H5.66487C2.90847 62.1329 0.665337 59.8833 0.665337 57.1188V5.68138C0.665337 2.91695 2.90847 0.667276 5.66487 0.667276H75.3351C78.0915 0.667276 80.3347 2.91695 80.3347 5.68138V57.0998V57.1188Z" fill="white"/>
<path d="M75.3351 2.17336H5.66485C3.72587 2.17336 2.14807 3.75576 2.14807 5.70039V52.3335H78.8329V5.68133C78.8329 3.73669 77.2551 2.1543 75.3161 2.1543L75.3351 2.17336ZM78.1866 51.6662H2.83242V5.68133C2.83242 4.118 4.10606 2.84064 5.66485 2.84064H75.3351C76.8939 2.84064 78.1675 4.118 78.1675 5.68133V51.6471L78.1866 51.6662Z" fill="white"/>
<path d="M74.4797 5.73782H55.6602C55.242 5.73782 54.9188 6.08099 54.9188 6.48135C54.9188 6.88172 55.261 7.22489 55.6602 7.22489H73.7384V10.5994H55.6602C55.242 10.5994 54.9188 10.9426 54.9188 11.3429C54.9188 11.7433 55.261 12.0865 55.6602 12.0865H74.4797C74.8979 12.0865 75.2211 11.7433 75.2211 11.3429V6.46229C75.2211 6.04286 74.8789 5.71875 74.4797 5.71875V5.73782Z" fill="white"/>
<path d="M71.077 45.7178H63.4541V32.7727H65.279C65.6972 32.7727 66.0204 32.4295 66.0204 32.0291V23.793C66.0204 23.3736 65.6782 23.0495 65.279 23.0495H63.5111L63.4161 22.4775C63.3591 22.1153 63.0549 21.8293 62.7127 21.8293C62.3706 21.8293 62.0664 22.0962 62.0094 22.4775L61.9143 23.0495H60.1464C59.7282 23.0495 59.4051 23.3927 59.4051 23.793V32.0291C59.4051 32.4486 59.7472 32.7727 60.1464 32.7727H61.9714V45.7178H51.364V38.74H53.1889C53.6071 38.74 53.9303 38.3968 53.9303 37.9965V29.7604C53.9303 29.341 53.5881 29.0169 53.1889 29.0169H51.421L51.326 28.4449C51.2689 28.0827 50.9648 27.8158 50.6226 27.8158C50.2804 27.8158 49.9763 28.0827 49.9193 28.464L49.8242 29.0359H48.0563C47.6381 29.0359 47.3149 29.3791 47.3149 29.7795V38.0155C47.3149 38.435 47.6571 38.7591 48.0563 38.7591H49.8812V45.7369H40.7566V20.6282H42.5815C42.9998 20.6282 43.3229 20.2851 43.3229 19.8847V11.6486C43.3229 11.2292 42.9807 10.9051 42.5815 10.9051H40.8136L40.7186 10.3331C40.6616 9.97089 40.3574 9.68491 40.0152 9.68491C39.6731 9.68491 39.3689 9.95182 39.3119 10.3331L39.2168 10.9051H37.4489C37.0307 10.9051 36.7076 11.2482 36.7076 11.6486V19.8847C36.7076 20.3041 37.0497 20.6282 37.4489 20.6282H39.2739V45.7369H30.1492V30.828H31.9742C32.3924 30.828 32.7155 30.4849 32.7155 30.0845V21.8484C32.7155 21.429 32.3734 21.1049 31.9742 21.1049H30.2063L30.1112 20.5329C30.0542 20.1707 29.75 19.8847 29.4079 19.8847C29.0657 19.8847 28.7615 20.1516 28.7045 20.5329L28.6095 21.1049H26.8416C26.4234 21.1049 26.1002 21.448 26.1002 21.8484V30.0845C26.1002 30.5039 26.4424 30.828 26.8416 30.828H28.6665V45.7369H19.5419V41.0278H21.3668C21.785 41.0278 22.1082 40.6847 22.1082 40.2843V32.0482C22.1082 31.6288 21.766 31.3047 21.3668 31.3047H19.5989L19.5039 30.7327C19.4468 30.3705 19.1427 30.0845 18.8005 30.0845C18.4583 30.0845 18.1542 30.3514 18.0971 30.7327L18.0021 31.3047H16.2342C15.816 31.3047 15.4928 31.6478 15.4928 32.0482V40.2843C15.4928 40.7037 15.835 41.0278 16.2342 41.0278H18.0591V45.7369H10.7024V8.44568C10.7024 8.02625 10.3602 7.70215 9.96103 7.70215C9.56183 7.70215 9.21966 8.04532 9.21966 8.44568V9.98995L8.61135 10.0471C8.21215 10.0853 7.927 10.3903 7.927 10.7716C7.927 11.1529 8.23116 11.477 8.61135 11.4961L9.21966 11.5533V15.3854L8.61135 15.4426C8.21215 15.4807 7.927 15.7857 7.927 16.167C7.927 16.5483 8.23116 16.8724 8.61135 16.8915L9.21966 16.9487V20.7808L8.61135 20.838C8.21215 20.8761 7.927 21.1811 7.927 21.5624C7.927 21.9437 8.23116 22.2678 8.61135 22.2869L9.21966 22.3441V26.1762L8.61135 26.2334C8.21215 26.2715 7.927 26.5765 7.927 26.9578C7.927 27.3391 8.23116 27.6632 8.61135 27.6823L9.21966 27.7395V31.5716L8.61135 31.6288C8.21215 31.6669 7.927 31.9719 7.927 32.3532C7.927 32.7345 8.23116 33.0586 8.61135 33.0777L9.21966 33.1349V36.967L8.61135 37.0242C8.21215 37.0623 7.927 37.3673 7.927 37.7486C7.927 38.1299 8.23116 38.454 8.61135 38.4731L9.21966 38.5303V42.3624L8.61135 42.4196C8.21215 42.4577 7.927 42.7627 7.927 43.144C7.927 43.5253 8.23116 43.8494 8.61135 43.8685L9.21966 43.9257V46.5376C9.21966 46.957 9.56183 47.2811 9.96103 47.2811H71.115C71.5332 47.2811 71.8564 46.938 71.8564 46.5376C71.8564 46.1372 71.5142 45.7941 71.115 45.7941L71.077 45.7178ZM16.9376 39.5217V32.7727H20.5874V39.5217H16.9376ZM27.5639 29.3028V22.5538H31.2138V29.3028H27.5639ZM38.1713 19.103V12.354H41.8212V19.103H38.1713ZM48.7787 37.2529V30.5039H52.4285V37.2529H48.7787ZM60.8878 31.2856V24.5366H64.5377V31.2856H60.8878Z" fill="white"/>
<path d="M74.4797 16.2236H55.6602C55.242 16.2236 54.9188 16.5668 54.9188 16.9672C54.9188 17.3675 55.261 17.7107 55.6602 17.7107H74.4797C74.8979 17.7107 75.2211 17.3675 75.2211 16.9672C75.2211 16.5668 74.8789 16.2236 74.4797 16.2236Z" fill="white"/>
<path d="M74.4797 5.07082H55.6601C54.8807 5.07082 54.2534 5.69997 54.2534 6.48164C54.2534 7.2633 54.8807 7.89245 55.6601 7.89245H73.0729V9.93241H55.6601C54.8807 9.93241 54.2534 10.5616 54.2534 11.3432C54.2534 12.1249 54.8807 12.754 55.6601 12.754H74.4797C75.259 12.754 75.8864 12.1249 75.8864 11.3432V6.46257C75.8864 5.6809 75.259 5.05176 74.4797 5.05176V5.07082ZM74.5557 11.3623C74.5557 11.3623 74.5177 11.4385 74.4797 11.4385H55.6601C55.6601 11.4385 55.5841 11.4004 55.5841 11.3623C55.5841 11.3242 55.6221 11.286 55.6601 11.286H74.4036V6.5579H55.6601C55.6601 6.5579 55.5841 6.51977 55.5841 6.48164C55.5841 6.4435 55.6221 6.40537 55.6601 6.40537H74.4797C74.4797 6.40537 74.5557 6.4435 74.5557 6.48164V11.3623Z" fill="white"/>
<path d="M31.8792 29.9888V21.9053H26.8987V29.9888H31.8792ZM28.2294 23.2398H30.5485V28.6352H28.2294V23.2398Z" fill="white"/>
<path d="M21.2527 40.189V32.1055H16.2722V40.189H21.2527ZM17.6029 33.44H19.9221V38.8354H17.6029V33.44Z" fill="white"/>
<path d="M74.4797 15.5566H55.6601C54.8807 15.5566 54.2534 16.1858 54.2534 16.9675C54.2534 17.7491 54.8807 18.3783 55.6601 18.3783H74.4797C75.259 18.3783 75.8864 17.7491 75.8864 16.9675C75.8864 16.1858 75.259 15.5566 74.4797 15.5566ZM74.4797 17.0437H55.6601C55.6601 17.0437 55.5841 17.0056 55.5841 16.9675C55.5841 16.9293 55.6221 16.8912 55.6601 16.8912H74.4797C74.4797 16.8912 74.5557 16.9293 74.5557 16.9675C74.5557 17.0056 74.5177 17.0437 74.4797 17.0437Z" fill="white"/>
<path d="M53.0939 37.9195V29.8359H48.1134V37.9195H53.0939ZM49.4631 31.1705H51.7823V36.5659H49.4631V31.1705Z" fill="white"/>
<path d="M65.2031 31.9527V23.8691H60.2225V31.9527H65.2031ZM61.5532 25.2228H63.8724V30.6182H61.5532V25.2228Z" fill="white"/>
<path d="M71.077 45.0498H64.1195V33.4583H65.2791C66.0584 33.4583 66.6858 32.8292 66.6858 32.0475V23.8114C66.6858 23.0297 66.0584 22.4006 65.2791 22.4006H64.0814C63.9674 21.7143 63.4161 21.1995 62.7128 21.1995C62.0094 21.1995 61.4581 21.7333 61.3441 22.4006H60.1465C59.3671 22.4006 58.7397 23.0297 58.7397 23.8114V32.0475C58.7397 32.8292 59.3671 33.4583 60.1465 33.4583H61.306V45.0498H52.0294V39.4066H53.1889C53.9683 39.4066 54.5956 38.7775 54.5956 37.9958V29.7597C54.5956 28.978 53.9683 28.3489 53.1889 28.3489H51.9913C51.8773 27.6625 51.326 27.1478 50.6226 27.1478C49.9193 27.1478 49.368 27.6816 49.2539 28.3489H48.0563C47.2769 28.3489 46.6496 28.978 46.6496 29.7597V37.9958C46.6496 38.7775 47.2769 39.4066 48.0563 39.4066H49.2159V45.0498H41.422V21.2758H42.5816C43.361 21.2758 43.9883 20.6466 43.9883 19.8649V11.6289C43.9883 10.8472 43.361 10.218 42.5816 10.218H41.384C41.2699 9.5317 40.7186 9.01694 40.0153 9.01694C39.3119 9.01694 38.7606 9.55076 38.6466 10.218H37.449C36.6696 10.218 36.0423 10.8472 36.0423 11.6289V19.8649C36.0423 20.6466 36.6696 21.2758 37.449 21.2758H38.6086V45.0498H30.8146V31.4755H31.9742C32.7536 31.4755 33.3809 30.8464 33.3809 30.0647V21.8286C33.3809 21.047 32.7536 20.4178 31.9742 20.4178H30.7766C30.6625 19.7315 30.1113 19.2167 29.4079 19.2167C28.7045 19.2167 28.1533 19.7506 28.0392 20.4178H26.8416C26.0622 20.4178 25.4349 21.047 25.4349 21.8286V30.0647C25.4349 30.8464 26.0622 31.4755 26.8416 31.4755H28.0012V45.0498H20.2072V41.6753H21.3668C22.1462 41.6753 22.7735 41.0462 22.7735 40.2645V32.0284C22.7735 31.2468 22.1462 30.6176 21.3668 30.6176H20.1692C20.0552 29.9313 19.5039 29.4165 18.8005 29.4165C18.0972 29.4165 17.5459 29.9503 17.4318 30.6176H16.2342C15.4548 30.6176 14.8275 31.2468 14.8275 32.0284V40.2645C14.8275 41.0462 15.4548 41.6753 16.2342 41.6753H17.3938V45.0498H11.3678V8.44499C11.3678 7.66333 10.7404 7.03418 9.96105 7.03418C9.18166 7.03418 8.55434 7.66333 8.55434 8.44499V9.36011C7.83197 9.41731 7.24268 10.0083 7.24268 10.7519C7.24268 11.4954 7.81296 12.0864 8.55434 12.1436V14.7365C7.83197 14.7936 7.24268 15.3847 7.24268 16.1282C7.24268 16.8717 7.81296 17.4628 8.55434 17.5199V20.1128C7.83197 20.17 7.24268 20.761 7.24268 21.5045C7.24268 22.2481 7.81296 22.8391 8.55434 22.8963V25.4891C7.83197 25.5463 7.24268 26.1373 7.24268 26.8809C7.24268 27.6244 7.81296 28.2154 8.55434 28.2726V30.8655C7.83197 30.9227 7.24268 31.5137 7.24268 32.2572C7.24268 33.0007 7.81296 33.5918 8.55434 33.649V36.2418C7.83197 36.299 7.24268 36.89 7.24268 37.6336C7.24268 38.3771 7.81296 38.9681 8.55434 39.0253V41.6181C7.83197 41.6753 7.24268 42.2664 7.24268 43.0099C7.24268 43.7534 7.81296 44.3444 8.55434 44.4016V46.4035C8.55434 47.1851 9.18166 47.8143 9.96105 47.8143H71.115C71.8944 47.8143 72.5217 47.1851 72.5217 46.4035C72.5217 45.6218 71.8944 44.9927 71.115 44.9927L71.077 45.0498ZM71.077 46.556H9.92303C9.92303 46.556 9.84699 46.5179 9.84699 46.4797V43.2387L8.61137 43.1433C8.61137 43.1433 8.53533 43.1433 8.53533 43.0862C8.53533 43.029 8.59236 43.029 8.61137 43.029L9.84699 42.9336V37.8623L8.61137 37.767C8.61137 37.767 8.53533 37.767 8.53533 37.7098C8.53533 37.6526 8.59236 37.6526 8.61137 37.6526L9.84699 37.5573V32.486L8.61137 32.3907C8.61137 32.3907 8.53533 32.3907 8.53533 32.3335C8.53533 32.2763 8.59236 32.2763 8.61137 32.2763L9.84699 32.181V27.1097L8.61137 27.0143C8.61137 27.0143 8.53533 27.0143 8.53533 26.9571C8.53533 26.8999 8.59236 26.8999 8.61137 26.8999L9.84699 26.8046V21.7333L8.61137 21.638C8.61137 21.638 8.53533 21.638 8.53533 21.5808C8.53533 21.5236 8.59236 21.5236 8.61137 21.5236L9.84699 21.4283V16.357L8.61137 16.2617C8.61137 16.2617 8.53533 16.2617 8.53533 16.2045C8.53533 16.1473 8.59236 16.1473 8.61137 16.1473L9.84699 16.0519V10.9806L8.61137 10.8853C8.61137 10.8853 8.53533 10.8853 8.53533 10.8281C8.53533 10.7709 8.59236 10.7709 8.61137 10.7709L9.84699 10.6756V8.52125C9.84699 8.52125 9.88501 8.44499 9.92303 8.44499C9.96105 8.44499 9.99907 8.48312 9.99907 8.52125V46.4607H18.6865V40.417H16.1962C16.1962 40.417 16.1202 40.3789 16.1202 40.3408V32.1047C16.1202 32.1047 16.1582 32.0284 16.1962 32.0284H18.5344L18.7055 30.9036C18.7055 30.9036 18.7245 30.8273 18.7625 30.8273C18.8005 30.8273 18.8195 30.8845 18.8195 30.9036L18.9906 32.0284H21.3288C21.3288 32.0284 21.4048 32.0666 21.4048 32.1047V40.3408C21.4048 40.3408 21.3668 40.417 21.3288 40.417H18.8385V46.4607H29.2938V30.1982H26.8036C26.8036 30.1982 26.7275 30.1601 26.7275 30.1219V21.8858C26.7275 21.8858 26.7656 21.8096 26.8036 21.8096H29.1418L29.3128 20.6847C29.3128 20.6847 29.3319 20.6085 29.3699 20.6085C29.4079 20.6085 29.4269 20.6657 29.4269 20.6847L29.598 21.8096H31.9362C31.9362 21.8096 32.0122 21.8477 32.0122 21.8858V30.1219C32.0122 30.1219 31.9742 30.1982 31.9362 30.1982H29.4459V46.4607H39.9012V19.9984H37.4109C37.4109 19.9984 37.3349 19.9603 37.3349 19.9221V11.686C37.3349 11.686 37.3729 11.6098 37.4109 11.6098H39.7491L39.9202 10.4849C39.9202 10.4849 39.9392 10.4087 39.9772 10.4087C40.0153 10.4087 40.0343 10.4659 40.0343 10.4849L40.2054 11.6098H42.5435C42.5435 11.6098 42.6196 11.6479 42.6196 11.686V19.9221C42.6196 19.9221 42.5816 19.9984 42.5435 19.9984H40.0533V46.4607H50.5086V38.1483H48.0183C48.0183 38.1483 47.9423 38.1102 47.9423 38.072V29.836C47.9423 29.836 47.9803 29.7597 48.0183 29.7597H50.3565L50.5276 28.6349C50.5276 28.6349 50.5466 28.5586 50.5846 28.5586C50.6226 28.5586 50.6416 28.6158 50.6416 28.6349L50.8127 29.7597H53.1509C53.1509 29.7597 53.227 29.7978 53.227 29.836V38.072C53.227 38.072 53.1889 38.1483 53.1509 38.1483H50.6607V46.4607H62.5987V32.181H60.1084C60.1084 32.181 60.0324 32.1428 60.0324 32.1047V23.8686C60.0324 23.8686 60.0704 23.7923 60.1084 23.7923H62.4466L62.6177 22.6675C62.6177 22.6675 62.6367 22.5912 62.6747 22.5912C62.7128 22.5912 62.7318 22.6484 62.7318 22.6675L62.9029 23.7923H65.241C65.241 23.7923 65.3171 23.8305 65.3171 23.8686V32.1047C65.3171 32.1047 65.2791 32.181 65.241 32.181H62.7508V46.4607H71.039C71.039 46.4607 71.115 46.4988 71.115 46.5369C71.115 46.5751 71.077 46.6132 71.039 46.6132L71.077 46.556Z" fill="white"/>
<path d="M42.4865 19.7701V11.6865H37.506V19.7701H42.4865ZM38.8367 13.0401H41.1558V18.4355H38.8367V13.0401Z" fill="white"/>
<path d="M31.2138 29.3027V22.5537H27.564V29.3027H31.2138ZM28.2293 23.2401H30.5485V28.6355H28.2293V23.2401Z" fill="white"/>
<path d="M41.8212 19.1025V12.3535H38.1714V19.1025H41.8212ZM38.8367 13.0399H41.1559V18.4353H38.8367V13.0399Z" fill="white"/>
<path d="M20.5875 39.5215V32.7725H16.9376V39.5215H20.5875ZM17.603 33.4397H19.9221V38.8351H17.603V33.4397Z" fill="white"/>
<path d="M52.4285 37.2529V30.5039H48.7787V37.2529H52.4285ZM49.463 31.1712H51.7822V36.5666H49.463V31.1712Z" fill="white"/>
<path d="M74.4797 15.5566H55.6601C54.8807 15.5566 54.2534 16.1858 54.2534 16.9675C54.2534 17.7491 54.8807 18.3783 55.6601 18.3783H74.4797C75.259 18.3783 75.8864 17.7491 75.8864 16.9675C75.8864 16.1858 75.259 15.5566 74.4797 15.5566ZM74.4797 17.7301H55.6601C55.2419 17.7301 54.9188 17.3869 54.9188 16.9865C54.9188 16.5862 55.2609 16.243 55.6601 16.243H74.4797C74.8979 16.243 75.221 16.5862 75.221 16.9865C75.221 17.3869 74.8789 17.7301 74.4797 17.7301Z" fill="white"/>
<path d="M74.4797 5.07082H55.6601C54.8807 5.07082 54.2534 5.69997 54.2534 6.48164C54.2534 7.2633 54.8807 7.89245 55.6601 7.89245H73.0729V9.93241H55.6601C54.8807 9.93241 54.2534 10.5616 54.2534 11.3432C54.2534 12.1249 54.8807 12.754 55.6601 12.754H74.4797C75.259 12.754 75.8864 12.1249 75.8864 11.3432V6.46257C75.8864 5.6809 75.259 5.05176 74.4797 5.05176V5.07082ZM75.221 11.3623C75.221 11.7817 74.8789 12.1058 74.4797 12.1058H55.6601C55.2419 12.1058 54.9188 11.7626 54.9188 11.3623C54.9188 10.9619 55.2609 10.6187 55.6601 10.6187H73.7383V7.24424H55.6601C55.2419 7.24424 54.9188 6.90107 54.9188 6.5007C54.9188 6.10033 55.2609 5.75716 55.6601 5.75716H74.4797C74.8979 5.75716 75.221 6.10033 75.221 6.5007V11.3813V11.3623Z" fill="white"/>
<path d="M71.077 45.0498H64.1195V33.4583H65.2791C66.0584 33.4583 66.6858 32.8292 66.6858 32.0475V23.8114C66.6858 23.0297 66.0584 22.4006 65.2791 22.4006H64.0814C63.9674 21.7143 63.4161 21.1995 62.7128 21.1995C62.0094 21.1995 61.4581 21.7333 61.3441 22.4006H60.1465C59.3671 22.4006 58.7397 23.0297 58.7397 23.8114V32.0475C58.7397 32.8292 59.3671 33.4583 60.1465 33.4583H61.306V45.0498H52.0294V39.4066H53.1889C53.9683 39.4066 54.5956 38.7775 54.5956 37.9958V29.7597C54.5956 28.978 53.9683 28.3489 53.1889 28.3489H51.9913C51.8773 27.6625 51.326 27.1478 50.6226 27.1478C49.9193 27.1478 49.368 27.6816 49.2539 28.3489H48.0563C47.2769 28.3489 46.6496 28.978 46.6496 29.7597V37.9958C46.6496 38.7775 47.2769 39.4066 48.0563 39.4066H49.2159V45.0498H41.422V21.2758H42.5816C43.361 21.2758 43.9883 20.6466 43.9883 19.8649V11.6289C43.9883 10.8472 43.361 10.218 42.5816 10.218H41.384C41.2699 9.5317 40.7186 9.01694 40.0153 9.01694C39.3119 9.01694 38.7606 9.55076 38.6466 10.218H37.449C36.6696 10.218 36.0423 10.8472 36.0423 11.6289V19.8649C36.0423 20.6466 36.6696 21.2758 37.449 21.2758H38.6086V45.0498H30.8146V31.4755H31.9742C32.7536 31.4755 33.3809 30.8464 33.3809 30.0647V21.8286C33.3809 21.047 32.7536 20.4178 31.9742 20.4178H30.7766C30.6625 19.7315 30.1113 19.2167 29.4079 19.2167C28.7045 19.2167 28.1533 19.7506 28.0392 20.4178H26.8416C26.0622 20.4178 25.4349 21.047 25.4349 21.8286V30.0647C25.4349 30.8464 26.0622 31.4755 26.8416 31.4755H28.0012V45.0498H20.2072V41.6753H21.3668C22.1462 41.6753 22.7735 41.0462 22.7735 40.2645V32.0284C22.7735 31.2468 22.1462 30.6176 21.3668 30.6176H20.1692C20.0552 29.9313 19.5039 29.4165 18.8005 29.4165C18.0972 29.4165 17.5459 29.9503 17.4318 30.6176H16.2342C15.4548 30.6176 14.8275 31.2468 14.8275 32.0284V40.2645C14.8275 41.0462 15.4548 41.6753 16.2342 41.6753H17.3938V45.0498H11.3678V8.44499C11.3678 7.66333 10.7404 7.03418 9.96105 7.03418C9.18166 7.03418 8.55434 7.66333 8.55434 8.44499V9.36011C7.83197 9.41731 7.24268 10.0083 7.24268 10.7519C7.24268 11.4954 7.81296 12.0864 8.55434 12.1436V14.7365C7.83197 14.7936 7.24268 15.3847 7.24268 16.1282C7.24268 16.8717 7.81296 17.4628 8.55434 17.5199V20.1128C7.83197 20.17 7.24268 20.761 7.24268 21.5045C7.24268 22.2481 7.81296 22.8391 8.55434 22.8963V25.4891C7.83197 25.5463 7.24268 26.1373 7.24268 26.8809C7.24268 27.6244 7.81296 28.2154 8.55434 28.2726V30.8655C7.83197 30.9227 7.24268 31.5137 7.24268 32.2572C7.24268 33.0007 7.81296 33.5918 8.55434 33.649V36.2418C7.83197 36.299 7.24268 36.89 7.24268 37.6336C7.24268 38.3771 7.81296 38.9681 8.55434 39.0253V41.6181C7.83197 41.6753 7.24268 42.2664 7.24268 43.0099C7.24268 43.7534 7.81296 44.3444 8.55434 44.4016V46.4035C8.55434 47.1851 9.18166 47.8143 9.96105 47.8143H71.115C71.8944 47.8143 72.5217 47.1851 72.5217 46.4035C72.5217 45.6218 71.8944 44.9927 71.115 44.9927L71.077 45.0498ZM71.077 47.2233H9.92303C9.50482 47.2233 9.18166 46.8801 9.18166 46.4797V43.8678L8.57335 43.8106C8.17415 43.7725 7.889 43.4674 7.889 43.0862C7.889 42.7048 8.19316 42.3807 8.57335 42.3617L9.18166 42.3045V38.4724L8.57335 38.4152C8.17415 38.3771 7.889 38.072 7.889 37.6907C7.889 37.3094 8.19316 36.9853 8.57335 36.9663L9.18166 36.9091V33.077L8.57335 33.0198C8.17415 32.9817 7.889 32.6766 7.889 32.2953C7.889 31.914 8.19316 31.5899 8.57335 31.5709L9.18166 31.5137V27.6816L8.57335 27.6244C8.17415 27.5863 7.889 27.2812 7.889 26.8999C7.889 26.5186 8.19316 26.1945 8.57335 26.1755L9.18166 26.1183V22.2862L8.57335 22.229C8.17415 22.1909 7.889 21.8858 7.889 21.5045C7.889 21.1232 8.19316 20.7991 8.57335 20.7801L9.18166 20.7229V16.8908L8.57335 16.8336C8.17415 16.7955 7.889 16.4904 7.889 16.1091C7.889 15.7278 8.19316 15.4037 8.57335 15.3847L9.18166 15.3275V11.4954L8.57335 11.4382C8.17415 11.4001 7.889 11.095 7.889 10.7137C7.889 10.3324 8.19316 10.0083 8.57335 9.98926L9.18166 9.93206V8.3878C9.18166 7.96837 9.52383 7.64426 9.92303 7.64426C10.3222 7.64426 10.6644 7.98743 10.6644 8.3878V45.6599H18.0211V40.9509H16.1962C15.778 40.9509 15.4548 40.6077 15.4548 40.2073V31.9712C15.4548 31.5518 15.797 31.2277 16.1962 31.2277H17.9641L18.0592 30.6558C18.1162 30.2935 18.4203 30.0075 18.7625 30.0075C19.1047 30.0075 19.4088 30.2744 19.4659 30.6367L19.5609 31.2086H21.3288C21.747 31.2086 22.0702 31.5518 22.0702 31.9522V40.1883C22.0702 40.6077 21.728 40.9318 21.3288 40.9318H19.5039V45.6409H28.6285V30.732H26.8036C26.3854 30.732 26.0622 30.3888 26.0622 29.9885V21.7524C26.0622 21.333 26.4044 21.0088 26.8036 21.0088H28.5715L28.6665 20.4369C28.7236 20.0747 29.0277 19.7887 29.3699 19.7887C29.712 19.7887 30.0162 20.0556 30.0732 20.4369L30.1683 21.0088H31.9362C32.3544 21.0088 32.6776 21.352 32.6776 21.7524V29.9885C32.6776 30.4079 32.3354 30.732 31.9362 30.732H30.1113V45.6409H39.2359V20.5322H37.4109C36.9927 20.5322 36.6696 20.1891 36.6696 19.7887V11.5526C36.6696 11.1332 37.0117 10.8091 37.4109 10.8091H39.1788L39.2739 10.2371C39.3309 9.87487 39.6351 9.58889 39.9772 9.58889C40.3194 9.58889 40.6236 9.8558 40.6806 10.2371L40.7757 10.8091H42.5435C42.9618 10.8091 43.2849 11.1522 43.2849 11.5526V19.7887C43.2849 20.2081 42.9427 20.5322 42.5435 20.5322H40.7186V45.6409H49.8432V38.6631H48.0183C47.6001 38.6631 47.2769 38.3199 47.2769 37.9195V29.6834C47.2769 29.264 47.6191 28.9399 48.0183 28.9399H49.7862L49.8813 28.3679C49.9383 28.0057 50.2424 27.7197 50.5846 27.7197C50.9268 27.7197 51.2309 27.9866 51.288 28.3679L51.383 28.9399H53.1509C53.5691 28.9399 53.8923 29.2831 53.8923 29.6834V37.9195C53.8923 38.339 53.5501 38.6631 53.1509 38.6631H51.326V45.6409H61.9334V32.6957H60.1084C59.6902 32.6957 59.3671 32.3525 59.3671 31.9522V23.7161C59.3671 23.2966 59.7092 22.9725 60.1084 22.9725H61.8763L61.9714 22.4006C62.0284 22.0384 62.3326 21.7524 62.6747 21.7524C63.0169 21.7524 63.3211 22.0193 63.3781 22.4006L63.4731 22.9725H65.241C65.6592 22.9725 65.9824 23.3157 65.9824 23.7161V31.9522C65.9824 32.3716 65.6402 32.6957 65.241 32.6957H63.4161V45.6409H71.039C71.4572 45.6409 71.7803 45.984 71.7803 46.3844C71.7803 46.7848 71.4382 47.1279 71.039 47.1279L71.077 47.2233Z" fill="white"/>
<path d="M64.5377 31.2852V24.5361H60.8878V31.2852H64.5377ZM61.5532 25.2225H63.8723V30.6179H61.5532V25.2225Z" fill="white"/>
</g>
<defs>
<clipPath id="clip0_1142_562">
<rect width="81" height="73" fill="white"/>
</clipPath>
</defs>
</svg>
