<svg width="71" height="71" viewBox="0 0 71 71" fill="none" xmlns="http://www.w3.org/2000/svg">
<g clip-path="url(#clip0_1142_523)">
<path d="M66.3652 0.59668H4.63489C2.41083 0.59668 0.594238 2.42069 0.594238 4.65382V23.4224C0.594238 25.6555 2.41083 27.4795 4.63489 27.4795H66.3652C68.5892 27.4795 70.4058 25.6555 70.4058 23.4224V4.65382C70.4058 2.42069 68.5892 0.59668 66.3652 0.59668ZM69.0816 23.4224C69.0816 24.9225 67.8592 26.1499 66.3652 26.1499H4.63489C3.14087 26.1499 1.91848 24.9225 1.91848 23.4224V4.65382C1.91848 3.1537 3.14087 1.92633 4.63489 1.92633H66.3652C67.8592 1.92633 69.0816 3.1537 69.0816 4.65382V23.4224Z" fill="white"/>
<path d="M35.5 46.2822H1.25636C0.882856 46.2822 0.594238 46.5891 0.594238 46.9471V55.8625C0.594238 56.2376 0.899834 56.5274 1.25636 56.5274H35.5C35.8735 56.5274 36.1621 56.2205 36.1621 55.8625V46.9471C36.1621 46.572 35.8566 46.2822 35.5 46.2822ZM34.8379 55.1977H1.93546V47.6289H34.8379V55.1977Z" fill="white"/>
<path d="M61.8322 14.7793H20.7805C20.407 14.7793 20.1184 15.0861 20.1184 15.4441C20.1184 15.8021 20.424 16.1089 20.7805 16.1089H61.8152C62.1887 16.1089 62.4773 15.8021 62.4773 15.4441C62.4773 15.0861 62.1717 14.7793 61.8152 14.7793H61.8322Z" fill="white"/>
<path d="M35.5 60.1582H1.25636C0.882856 60.1582 0.594238 60.465 0.594238 60.823V69.7385C0.594238 70.1135 0.899834 70.4033 1.25636 70.4033H35.5C35.8735 70.4033 36.1621 70.0965 36.1621 69.7385V60.823C36.1621 60.448 35.8566 60.1582 35.5 60.1582ZM34.8379 69.0737H1.93546V61.5049H34.8379V69.0737Z" fill="white"/>
<path d="M35.5 32.4062H1.25636C0.882856 32.4062 0.594238 32.7131 0.594238 33.0711V41.9866C0.594238 42.3616 0.899834 42.6514 1.25636 42.6514H35.5C35.8735 42.6514 36.1621 42.3445 36.1621 41.9866V33.0711C36.1621 32.696 35.8566 32.4062 35.5 32.4062ZM34.8379 41.3217H1.93546V33.7529H34.8379V41.3217Z" fill="white"/>
<path d="M69.7438 64.6074H43.0042C42.6307 64.6074 42.342 64.9143 42.342 65.2722C42.342 65.6302 42.6476 65.9371 43.0042 65.9371H69.7438C70.1173 65.9371 70.4059 65.6302 70.4059 65.2722C70.4059 64.9143 70.1003 64.6074 69.7438 64.6074Z" fill="white"/>
<path d="M35.7885 20.1318H10.8316C10.4581 20.1318 10.1694 20.4387 10.1694 20.7967C10.1694 21.1546 10.475 21.4615 10.8316 21.4615H35.7885C36.162 21.4615 36.4506 21.1546 36.4506 20.7967C36.4506 20.4387 36.145 20.1318 35.7885 20.1318Z" fill="white"/>
<path d="M59.9476 7.9783C59.9476 7.60327 59.642 7.31348 59.2854 7.31348H8.21706C7.84355 7.31348 7.55493 7.62032 7.55493 7.9783C7.55493 8.33629 7.86053 8.64313 8.21706 8.64313H59.2854C59.6589 8.64313 59.9476 8.33629 59.9476 7.9783Z" fill="white"/>
<path d="M69.7438 50.7314H43.0042C42.6307 50.7314 42.342 51.0383 42.342 51.3963C42.342 51.7543 42.6476 52.0611 43.0042 52.0611H69.7438C70.1173 52.0611 70.4059 51.7543 70.4059 51.3963C70.4059 51.0383 70.1003 50.7314 69.7438 50.7314Z" fill="white"/>
<path d="M69.7438 36.8555H43.0042C42.6307 36.8555 42.342 37.1623 42.342 37.5203C42.342 37.8783 42.6476 38.1851 43.0042 38.1851H69.7438C70.1173 38.1851 70.4059 37.8783 70.4059 37.5203C70.4059 37.1623 70.1003 36.8555 69.7438 36.8555Z" fill="white"/>
<path d="M35.5 45.6855H1.25634C0.560258 45.6855 0 46.2481 0 46.947V55.8625C0 56.5614 0.560258 57.124 1.25634 57.124H35.5C36.1961 57.124 36.7563 56.5614 36.7563 55.8625V46.947C36.7563 46.2481 36.1961 45.6855 35.5 45.6855ZM35.5679 55.8625C35.5679 55.8625 35.534 55.9307 35.5 55.9307H1.25634C1.25634 55.9307 1.18843 55.8966 1.18843 55.8625V46.947C1.18843 46.947 1.22238 46.8788 1.25634 46.8788H35.5C35.5 46.8788 35.5679 46.9129 35.5679 46.947V55.8625Z" fill="white"/>
<path d="M35.5 59.5615H1.25634C0.560258 59.5615 0 60.1241 0 60.823V69.7385C0 70.4374 0.560258 70.9999 1.25634 70.9999H35.5C36.1961 70.9999 36.7563 70.4374 36.7563 69.7385V60.823C36.7563 60.1241 36.1961 59.5615 35.5 59.5615ZM35.5679 69.7385C35.5679 69.7385 35.534 69.8067 35.5 69.8067H1.25634C1.25634 69.8067 1.18843 69.7726 1.18843 69.7385V60.823C1.18843 60.823 1.22238 60.7548 1.25634 60.7548H35.5C35.5 60.7548 35.5679 60.7889 35.5679 60.823V69.7385Z" fill="white"/>
<path d="M2.52974 60.8916H1.34131V69.6537H35.4322V60.8916H2.52974ZM34.2437 68.4604H2.52974V62.0849H34.2437V68.4604Z" fill="white"/>
<path d="M2.52974 47.0146H1.34131V55.7767H35.4322V47.0146H2.52974ZM34.2437 54.5834H2.52974V48.2079H34.2437V54.5834Z" fill="white"/>
<path d="M60.5418 7.97826C60.5418 7.27934 59.9815 6.7168 59.2854 6.7168H8.21703C7.52095 6.7168 6.96069 7.27934 6.96069 7.97826C6.96069 8.67718 7.52095 9.23973 8.21703 9.23973H59.2854C59.9815 9.23973 60.5418 8.67718 60.5418 7.97826ZM8.14912 7.97826C8.14912 7.97826 8.18308 7.91007 8.21703 7.91007H59.2854C59.2854 7.91007 59.3533 7.94417 59.3533 7.97826C59.3533 8.01235 59.3194 8.04645 59.2854 8.04645H8.21703C8.21703 8.04645 8.14912 8.01235 8.14912 7.97826Z" fill="white"/>
<path d="M35.7887 19.5361H10.8318C10.1357 19.5361 9.57544 20.0987 9.57544 20.7976C9.57544 21.4965 10.1357 22.0591 10.8318 22.0591H35.7887C36.4848 22.0591 37.0451 21.4965 37.0451 20.7976C37.0451 20.0987 36.4848 19.5361 35.7887 19.5361ZM35.7887 20.8658H10.8318C10.8318 20.8658 10.7639 20.8317 10.7639 20.7976C10.7639 20.7635 10.7978 20.7294 10.8318 20.7294H35.7887C35.7887 20.7294 35.8566 20.7635 35.8566 20.7976C35.8566 20.8317 35.8227 20.8658 35.7887 20.8658Z" fill="white"/>
<path d="M66.3651 1.33008H4.63484C2.81824 1.33008 1.32422 2.81315 1.32422 4.65421V23.4228C1.32422 25.2468 2.80126 26.7469 4.63484 26.7469H66.3651C68.1817 26.7469 69.6757 25.2638 69.6757 23.4228V4.65421C69.6757 2.8302 68.1987 1.33008 66.3651 1.33008ZM68.4703 23.4228C68.4703 24.599 67.5196 25.5536 66.3481 25.5536H4.63484C3.46339 25.5536 2.51265 24.599 2.51265 23.4228V4.65421C2.51265 3.47798 3.46339 2.52336 4.63484 2.52336H66.3651C67.5366 2.52336 68.4873 3.47798 68.4873 4.65421V23.4228H68.4703Z" fill="white"/>
<path d="M61.8322 14.1826H20.7805C20.0844 14.1826 19.5242 14.7452 19.5242 15.4441C19.5242 16.143 20.0844 16.7055 20.7805 16.7055H61.8152C62.5113 16.7055 63.0715 16.143 63.0715 15.4441C63.0715 14.7452 62.5113 14.1826 61.8152 14.1826H61.8322ZM61.8322 15.5123H20.7805C20.7805 15.5123 20.7126 15.4782 20.7126 15.4441C20.7126 15.41 20.7466 15.3759 20.7805 15.3759H61.8152C61.8152 15.3759 61.8831 15.41 61.8831 15.4441C61.8831 15.4782 61.8491 15.5123 61.8152 15.5123H61.8322Z" fill="white"/>
<path d="M66.3651 0H4.63486C2.08824 0 0 2.09676 0 4.65378V23.4223C0 25.9964 2.08824 28.0761 4.63486 28.0761H66.3651C68.9287 28.0761 71 25.9794 71 23.4223V4.65378C71 2.07971 68.9118 0 66.3651 0ZM69.8116 23.4223C69.8116 25.3316 68.2666 26.8828 66.3651 26.8828H4.63486C2.73338 26.8828 1.18843 25.3316 1.18843 23.4223V4.65378C1.18843 2.74454 2.73338 1.19328 4.63486 1.19328H66.3651C68.2666 1.19328 69.8116 2.74454 69.8116 4.65378V23.4223Z" fill="white"/>
<path d="M69.7437 50.1348H43.0041C42.3081 50.1348 41.7478 50.6973 41.7478 51.3962C41.7478 52.0951 42.3081 52.6577 43.0041 52.6577H69.7437C70.4398 52.6577 71.0001 52.0951 71.0001 51.3962C71.0001 50.6973 70.4398 50.1348 69.7437 50.1348ZM69.7437 51.4815H43.0041C43.0041 51.4815 42.9362 51.4474 42.9362 51.4133C42.9362 51.3792 42.9702 51.3451 43.0041 51.3451H69.7437C69.7437 51.3451 69.8116 51.3792 69.8116 51.4133C69.8116 51.4474 69.7777 51.4815 69.7437 51.4815Z" fill="white"/>
<path d="M35.5 31.8096H1.25634C0.560258 31.8096 0 32.3721 0 33.071V41.9865C0 42.6854 0.560258 43.248 1.25634 43.248H35.5C36.1961 43.248 36.7563 42.6854 36.7563 41.9865V33.071C36.7563 32.3721 36.1961 31.8096 35.5 31.8096ZM35.5679 41.9865C35.5679 41.9865 35.534 42.0547 35.5 42.0547H1.25634C1.25634 42.0547 1.18843 42.0206 1.18843 41.9865V33.071C1.18843 33.071 1.22238 33.0028 1.25634 33.0028H35.5C35.5 33.0028 35.5679 33.0369 35.5679 33.071V41.9865Z" fill="white"/>
<path d="M69.7437 64.0107H43.0041C42.3081 64.0107 41.7478 64.5733 41.7478 65.2722C41.7478 65.9711 42.3081 66.5337 43.0041 66.5337H69.7437C70.4398 66.5337 71.0001 65.9711 71.0001 65.2722C71.0001 64.5733 70.4398 64.0107 69.7437 64.0107ZM69.7437 65.3574H43.0041C43.0041 65.3574 42.9362 65.3233 42.9362 65.2893C42.9362 65.2552 42.9702 65.2211 43.0041 65.2211H69.7437C69.7437 65.2211 69.8116 65.2552 69.8116 65.2893C69.8116 65.3233 69.7777 65.3574 69.7437 65.3574Z" fill="white"/>
<path d="M2.52974 33.1387H1.34131V41.9007H35.4322V33.1387H2.52974ZM34.2437 40.7075H2.52974V34.3319H34.2437V40.7075Z" fill="white"/>
<path d="M69.7437 36.2588H43.0041C42.3081 36.2588 41.7478 36.8213 41.7478 37.5203C41.7478 38.2192 42.3081 38.7817 43.0041 38.7817H69.7437C70.4398 38.7817 71.0001 38.2192 71.0001 37.5203C71.0001 36.8213 70.4398 36.2588 69.7437 36.2588ZM69.7437 37.5884H43.0041C43.0041 37.5884 42.9362 37.5543 42.9362 37.5203C42.9362 37.4862 42.9702 37.4521 43.0041 37.4521H69.7437C69.7437 37.4521 69.8116 37.4862 69.8116 37.5203C69.8116 37.5543 69.7777 37.5884 69.7437 37.5884Z" fill="white"/>
<path d="M35.5 45.6855H1.25634C0.560258 45.6855 0 46.2481 0 46.947V55.8625C0 56.5614 0.560258 57.124 1.25634 57.124H35.5C36.1961 57.124 36.7563 56.5614 36.7563 55.8625V46.947C36.7563 46.2481 36.1961 45.6855 35.5 45.6855ZM36.1621 55.8625C36.1621 56.2375 35.8565 56.5273 35.5 56.5273H1.25634C0.882831 56.5273 0.594213 56.2205 0.594213 55.8625V46.947C0.594213 46.572 0.899809 46.2822 1.25634 46.2822H35.5C35.8735 46.2822 36.1621 46.589 36.1621 46.947V55.8625Z" fill="white"/>
<path d="M2.52976 61.4883H1.93555V69.0571H34.838V61.4883H2.52976ZM34.2438 68.4604H2.52976V62.0849H34.2438V68.4604Z" fill="white"/>
<path d="M35.5 59.5615H1.25634C0.560258 59.5615 0 60.1241 0 60.823V69.7385C0 70.4374 0.560258 70.9999 1.25634 70.9999H35.5C36.1961 70.9999 36.7563 70.4374 36.7563 69.7385V60.823C36.7563 60.1241 36.1961 59.5615 35.5 59.5615ZM36.1621 69.7385C36.1621 70.1135 35.8565 70.4033 35.5 70.4033H1.25634C0.882831 70.4033 0.594213 70.0965 0.594213 69.7385V60.823C0.594213 60.448 0.899809 60.1582 1.25634 60.1582H35.5C35.8735 60.1582 36.1621 60.465 36.1621 60.823V69.7385Z" fill="white"/>
<path d="M2.52976 47.6113H1.93555V55.1801H34.838V47.6113H2.52976ZM34.2438 54.5835H2.52976V48.208H34.2438V54.5835Z" fill="white"/>
<path d="M66.3651 1.9438H4.63486C3.14084 1.9438 1.91846 3.17118 1.91846 4.6713V23.4398C1.91846 24.94 3.14084 26.1673 4.63486 26.1673H66.3651C67.8592 26.1673 69.0815 24.94 69.0815 23.4398V4.65425C69.0815 3.15413 67.8592 1.92676 66.3651 1.92676V1.9438ZM68.4704 23.4228C68.4704 24.599 67.5196 25.5536 66.3482 25.5536H4.63486C3.46341 25.5536 2.51267 24.599 2.51267 23.4228V4.65425C2.51267 3.47802 3.46341 2.5234 4.63486 2.5234H66.3651C67.5366 2.5234 68.4873 3.47802 68.4873 4.65425V23.4228H68.4704Z" fill="white"/>
<path d="M2.52976 33.7354H1.93555V41.3041H34.838V33.7354H2.52976ZM34.2438 40.7075H2.52976V34.332H34.2438V40.7075Z" fill="white"/>
<path d="M35.7887 19.5361H10.8318C10.1357 19.5361 9.57544 20.0987 9.57544 20.7976C9.57544 21.4965 10.1357 22.0591 10.8318 22.0591H35.7887C36.4848 22.0591 37.0451 21.4965 37.0451 20.7976C37.0451 20.0987 36.4848 19.5361 35.7887 19.5361ZM35.7887 21.4624H10.8318C10.4583 21.4624 10.1697 21.1556 10.1697 20.7976C10.1697 20.4396 10.4752 20.1328 10.8318 20.1328H35.7887C36.1622 20.1328 36.4509 20.4396 36.4509 20.7976C36.4509 21.1556 36.1453 21.4624 35.7887 21.4624Z" fill="white"/>
<path d="M61.8322 14.1826H20.7805C20.0844 14.1826 19.5242 14.7452 19.5242 15.4441C19.5242 16.143 20.0844 16.7055 20.7805 16.7055H61.8152C62.5113 16.7055 63.0715 16.143 63.0715 15.4441C63.0715 14.7452 62.5113 14.1826 61.8152 14.1826H61.8322ZM61.8322 16.1089H20.7805C20.407 16.1089 20.1184 15.8021 20.1184 15.4441C20.1184 15.0861 20.424 14.7793 20.7805 14.7793H61.8152C62.1887 14.7793 62.4773 15.0861 62.4773 15.4441C62.4773 15.8021 62.1717 16.1089 61.8152 16.1089H61.8322Z" fill="white"/>
<path d="M66.3651 0H4.63486C2.08824 0 0 2.09676 0 4.65378V23.4223C0 25.9964 2.08824 28.0761 4.63486 28.0761H66.3651C68.9287 28.0761 71 25.9794 71 23.4223V4.65378C71 2.07971 68.9118 0 66.3651 0ZM70.4058 23.4223C70.4058 25.6555 68.5892 27.4795 66.3651 27.4795H4.63486C2.41081 27.4795 0.594213 25.6555 0.594213 23.4223V4.65378C0.594213 2.42065 2.41081 0.596639 4.63486 0.596639H66.3651C68.5892 0.596639 70.4058 2.42065 70.4058 4.65378V23.4223Z" fill="white"/>
<path d="M60.5418 7.97826C60.5418 7.27934 59.9815 6.7168 59.2854 6.7168H8.21703C7.52095 6.7168 6.96069 7.27934 6.96069 7.97826C6.96069 8.67718 7.52095 9.23973 8.21703 9.23973H59.2854C59.9815 9.23973 60.5418 8.67718 60.5418 7.97826ZM7.55491 7.97826C7.55491 7.60323 7.8605 7.31344 8.21703 7.31344H59.2854C59.6589 7.31344 59.9475 7.62028 59.9475 7.97826C59.9475 8.33624 59.6419 8.64309 59.2854 8.64309H8.21703C7.84352 8.64309 7.55491 8.33624 7.55491 7.97826Z" fill="white"/>
<path d="M35.5 31.8096H1.25634C0.560258 31.8096 0 32.3721 0 33.071V41.9865C0 42.6854 0.560258 43.248 1.25634 43.248H35.5C36.1961 43.248 36.7563 42.6854 36.7563 41.9865V33.071C36.7563 32.3721 36.1961 31.8096 35.5 31.8096ZM36.1621 41.9865C36.1621 42.3615 35.8565 42.6513 35.5 42.6513H1.25634C0.882831 42.6513 0.594213 42.3445 0.594213 41.9865V33.071C0.594213 32.696 0.899809 32.4062 1.25634 32.4062H35.5C35.8735 32.4062 36.1621 32.7131 36.1621 33.071V41.9865Z" fill="white"/>
<path d="M69.7437 36.2588H43.0041C42.3081 36.2588 41.7478 36.8213 41.7478 37.5203C41.7478 38.2192 42.3081 38.7817 43.0041 38.7817H69.7437C70.4398 38.7817 71.0001 38.2192 71.0001 37.5203C71.0001 36.8213 70.4398 36.2588 69.7437 36.2588ZM69.7437 38.2021H43.0041C42.6306 38.2021 42.342 37.8953 42.342 37.5373C42.342 37.1793 42.6476 36.8725 43.0041 36.8725H69.7437C70.1172 36.8725 70.4059 37.1793 70.4059 37.5373C70.4059 37.8953 70.1003 38.2021 69.7437 38.2021Z" fill="white"/>
<path d="M69.7437 64.0107H43.0041C42.3081 64.0107 41.7478 64.5733 41.7478 65.2722C41.7478 65.9711 42.3081 66.5337 43.0041 66.5337H69.7437C70.4398 66.5337 71.0001 65.9711 71.0001 65.2722C71.0001 64.5733 70.4398 64.0107 69.7437 64.0107ZM69.7437 65.9541H43.0041C42.6306 65.9541 42.342 65.6472 42.342 65.2893C42.342 64.9313 42.6476 64.6244 43.0041 64.6244H69.7437C70.1172 64.6244 70.4059 64.9313 70.4059 65.2893C70.4059 65.6472 70.1003 65.9541 69.7437 65.9541Z" fill="white"/>
<path d="M69.7437 50.1348H43.0041C42.3081 50.1348 41.7478 50.6973 41.7478 51.3962C41.7478 52.0951 42.3081 52.6577 43.0041 52.6577H69.7437C70.4398 52.6577 71.0001 52.0951 71.0001 51.3962C71.0001 50.6973 70.4398 50.1348 69.7437 50.1348ZM69.7437 52.0781H43.0041C42.6306 52.0781 42.342 51.7713 42.342 51.4133C42.342 51.0553 42.6476 50.7485 43.0041 50.7485H69.7437C70.1172 50.7485 70.4059 51.0553 70.4059 51.4133C70.4059 51.7713 70.1003 52.0781 69.7437 52.0781Z" fill="white"/>
</g>
<defs>
<clipPath id="clip0_1142_523">
<rect width="71" height="71" fill="white"/>
</clipPath>
</defs>
</svg>
