<svg width="100" height="65" viewBox="0 0 100 65" fill="none" xmlns="http://www.w3.org/2000/svg">
<g clip-path="url(#clip0_1141_490)">
<path d="M50.0109 24.5291C49.4899 24.5291 48.9907 24.2906 48.6434 23.8785C48.448 23.6399 48.1224 23.1194 48.2744 22.4037C48.4046 21.7313 48.969 21.1458 49.6419 20.9939C49.7721 20.9722 49.9023 20.9506 50.0109 20.9506C50.5318 20.9506 51.0093 21.1674 51.3566 21.5795C51.9427 22.2735 52.7892 22.6639 53.6575 22.6639C54.8513 22.6639 55.8932 21.9916 56.3925 20.9289C56.8917 19.8445 56.7181 18.6299 55.9583 17.719C55.2855 16.9382 54.4823 16.2876 53.549 15.8104L53.1365 15.5935V14.726C53.1365 13.5982 52.0729 12.709 50.7272 12.709H49.3597C48.0139 12.709 46.9503 13.5982 46.9503 14.726V15.5718L46.5379 15.7887C44.2805 16.9382 42.7176 19.0854 42.3486 21.5578C42.0013 23.8134 42.6525 26.0907 44.1285 27.8041C45.6045 29.5175 47.7317 30.5151 49.9892 30.5368C50.7923 30.5368 51.4652 30.9706 51.7039 31.6212C51.9427 32.2285 51.8776 32.8358 51.5303 33.3346C51.2047 33.8118 50.6403 34.1154 50.0543 34.1154C49.5333 34.1154 49.0558 33.8985 48.7085 33.4864C48.1224 32.7924 47.2759 32.402 46.4077 32.402C45.2138 32.402 44.1719 33.0743 43.6727 34.1371C43.1734 35.2215 43.3471 36.436 44.1068 37.347C44.2805 37.5421 44.5192 37.6506 44.758 37.6506C44.9533 37.6506 45.1487 37.5855 45.3006 37.4554C45.6479 37.1518 45.7131 36.6095 45.4092 36.2625C45.0619 35.8721 44.9968 35.3299 45.2138 34.8745C45.4309 34.3973 45.8867 34.1154 46.4077 34.1154C46.7984 34.1154 47.1457 34.2889 47.4061 34.5925C48.079 35.3733 49.0341 35.8071 50.0326 35.8071C51.183 35.8071 52.2466 35.2432 52.8978 34.3106C53.5707 33.3563 53.7009 32.1634 53.2668 31.0356C52.7675 29.7343 51.4869 28.8668 49.9675 28.8668C48.2093 28.8668 46.5379 28.0643 45.3875 26.7197C44.2153 25.3533 43.7378 23.6182 43.9983 21.8181C44.3239 19.6276 45.8433 17.8057 48.0139 17.025C48.4046 16.9382 48.7519 16.8731 49.0775 16.8298C49.3814 16.7864 49.6853 16.7864 49.9892 16.7864C50.6621 16.7864 51.3132 16.8731 51.9644 17.025H52.0078L52.1381 17.0683C53.1148 17.437 53.9831 18.0443 54.656 18.8468C55.0033 19.2372 55.0684 19.7577 54.8513 20.2348C54.6343 20.712 54.1784 20.9939 53.6575 20.9939C53.2668 20.9939 52.9195 20.8204 52.659 20.5168C51.9861 19.736 51.0528 19.3022 50.0326 19.3022C49.7938 19.3022 49.555 19.3239 49.2946 19.3673C47.9271 19.6493 46.8418 20.7554 46.5813 22.1217C46.3859 23.1628 46.6681 24.2038 47.3193 25.0063C47.9922 25.8087 48.969 26.2642 49.9892 26.2642C51.6388 26.2642 53.2017 26.9149 54.3521 28.1077C55.5025 29.3006 56.132 30.8621 56.0669 32.5321C56.0235 33.8551 55.5459 35.1131 54.6994 36.1758C54.5474 36.3493 54.4823 36.5662 54.504 36.8047C54.5257 37.0216 54.6343 37.2385 54.8079 37.3686C55.0033 37.5205 55.1986 37.5638 55.3506 37.5638C55.611 37.5638 55.8498 37.4554 56.0235 37.2602C57.1088 35.9372 57.7165 34.2672 57.7817 32.5972C57.8468 30.4717 57.0654 28.4764 55.5893 26.9365C54.1133 25.4184 52.1164 24.5725 49.9892 24.5725L50.0109 24.5291Z" fill="white"/>
<path d="M59.757 5.50874C59.757 5.50874 59.8872 5.53043 59.974 5.53043C60.3647 5.53043 60.712 5.27017 60.7989 4.87978L61.5586 1.80003C61.6671 1.34458 61.3849 0.889123 60.9508 0.758993C60.8857 0.758993 60.8206 0.737305 60.7337 0.737305C60.343 0.737305 59.9957 0.997565 59.9089 1.38796L59.1492 4.4677C59.0407 4.92316 59.3229 5.37861 59.7787 5.50874H59.757Z" fill="white"/>
<path d="M67.3107 8.4584C67.5711 8.4584 67.8099 8.34996 67.9836 8.13308L70.1542 5.42203C70.4364 5.05333 70.3929 4.51112 70.0239 4.22917C69.872 4.09904 69.6983 4.05566 69.503 4.05566C69.2425 4.05566 69.0037 4.16411 68.8301 4.38099L66.6595 7.09203C66.3773 7.46074 66.4207 8.00294 66.7897 8.28489C66.9851 8.43671 67.1804 8.4584 67.3107 8.4584Z" fill="white"/>
<path d="M32.0164 8.15476C32.1901 8.34996 32.4289 8.48009 32.6893 8.48009C32.8847 8.48009 33.0583 8.41502 33.2103 8.28489C33.5793 8.00294 33.6444 7.46074 33.3405 7.09203L31.1699 4.38099C31.018 4.18579 30.7575 4.05566 30.497 4.05566C30.3017 4.05566 30.128 4.12073 29.9761 4.22917C29.6071 4.53281 29.5419 5.05333 29.8458 5.42203L32.0164 8.13307V8.15476Z" fill="white"/>
<path d="M39.2229 4.90127C39.3097 5.26997 39.657 5.55192 40.0477 5.55192C40.1128 5.55192 40.178 5.55192 40.2648 5.53023C40.7206 5.42179 41.0028 4.94464 40.8943 4.48919L40.1345 1.40944C40.0477 1.04074 39.7004 0.758789 39.3097 0.758789C39.2446 0.758789 39.1795 0.758789 39.0926 0.780477C38.6368 0.888919 38.3546 1.36606 38.4632 1.82152L39.2229 4.90127Z" fill="white"/>
<path d="M92.7284 19.7798L74.2348 11.6901L74.0395 11.625C74.0395 11.625 73.9093 11.6033 73.8007 11.5816H63.3167L63.0996 11.4081C59.4096 8.41512 54.7645 6.74512 50.0108 6.74512C45.2572 6.74512 40.6121 8.39343 36.9221 11.4081L36.705 11.5816H26.1775C26.1775 11.5816 26.0473 11.6033 25.8736 11.6467L7.27152 19.7798C7.01105 19.8883 6.8374 20.1268 6.77228 20.3871L0.7814 49.9266C0.716281 50.2303 0.824812 50.5556 1.08528 50.7508C1.23723 50.8809 1.43258 50.946 1.62794 50.946C1.73647 50.946 1.8667 50.9243 1.97524 50.8809L19.7308 43.2683V63.3951C19.7308 63.8722 20.1215 64.2409 20.5774 64.2409H79.4877C79.9652 64.2409 80.3343 63.8506 80.3343 63.3951V43.2683L98.0898 50.8809C98.0898 50.8809 98.3069 50.946 98.4154 50.946C98.6108 50.946 98.8062 50.8809 98.9581 50.7508C99.1969 50.5556 99.3271 50.2303 99.262 49.9266L93.2494 20.3871C93.1843 20.1051 93.0106 19.8883 92.7501 19.7798H92.7284ZM73.0844 13.295L78.4241 41.1212H65.7478L66.6594 39.9066C69.351 36.3063 70.7836 32.0337 70.7836 27.5442C70.7836 22.7728 69.199 18.2616 66.1819 14.5312L65.1834 13.295H73.0844ZM50.0108 8.4585C60.5383 8.4585 69.0905 17.0254 69.0905 27.5226C69.0905 32.5543 67.1369 37.2823 63.5989 40.8826L63.3818 41.1212H36.6182L36.4011 40.8826C32.863 37.304 30.9095 32.5543 30.9095 27.5226C30.9095 17.0037 39.4834 8.4585 50.0108 8.4585ZM26.9155 13.295H34.8166L33.8181 14.5312C30.8009 18.2616 29.2164 22.7728 29.2164 27.5442C29.2164 32.0337 30.649 36.3063 33.3405 39.9066L34.2522 41.1212H21.5758L26.9155 13.295ZM19.7959 41.3814L2.77836 48.6904L8.37853 21.1896L25.0922 13.8806L19.8176 41.3814H19.7959ZM78.5978 62.5493H21.4022V42.8345H78.5978V62.5493ZM80.204 41.3814L74.9294 13.8806L91.6431 21.1896L97.2433 48.6904L80.2257 41.3814H80.204Z" fill="white"/>
<path d="M67.3106 9.2178C67.7882 9.2178 68.2657 9.00091 68.5696 8.61052L70.7402 5.89948C71.3045 5.20545 71.1743 4.1861 70.4797 3.64389C70.1758 3.40532 69.8285 3.29688 69.4812 3.29688C69.0037 3.29688 68.5262 3.51376 68.2223 3.90415L66.0517 6.61519C65.4873 7.30922 65.6175 8.32857 66.3121 8.87078C66.616 9.10935 66.9633 9.2178 67.3106 9.2178Z" fill="white"/>
<path d="M31.4304 8.61052C31.756 9.00091 32.2118 9.2178 32.6894 9.2178C33.0367 9.2178 33.4057 9.10935 33.6878 8.87078C34.3824 8.30689 34.491 7.30922 33.9483 6.61519L31.7777 3.90415C31.4521 3.51376 30.9963 3.29688 30.5187 3.29688C30.1715 3.29688 29.8024 3.40532 29.5203 3.64389C28.8257 4.20779 28.7171 5.20545 29.2598 5.89948L31.4304 8.61052Z" fill="white"/>
<path d="M59.5617 6.24625C59.6919 6.28962 59.8221 6.28962 59.9524 6.28962C60.6687 6.28962 61.3416 5.79079 61.5152 5.07508L62.2749 1.99533C62.492 1.12779 61.971 0.26026 61.1028 0.0433767C60.9726 0.0216884 60.8423 0 60.7121 0C59.9958 0 59.3229 0.477144 59.1492 1.21455L58.3895 4.29429C58.1725 5.16183 58.6934 6.02936 59.5617 6.24625Z" fill="white"/>
<path d="M38.4849 5.07508C38.6586 5.81248 39.3315 6.28962 40.0478 6.28962C40.178 6.28962 40.3082 6.28962 40.4385 6.24625C41.3067 6.02936 41.8277 5.16183 41.6106 4.29429L40.8509 1.21455C40.6555 0.477144 40.0043 0 39.2663 0C39.1361 0 39.0059 0 38.8756 0.0433767C38.0074 0.26026 37.4864 1.12779 37.7035 1.99533L38.4632 5.07508H38.4849ZM39.2446 1.51818C39.2446 1.51818 39.2446 1.51818 39.2663 1.51818C39.2663 1.51818 39.3315 1.51819 39.3532 1.58325L40.1129 4.663C40.1129 4.663 40.1129 4.77144 40.0261 4.77144C40.0043 4.77144 39.9609 4.77144 39.9392 4.70637L39.1795 1.62663C39.1795 1.62663 39.1795 1.51818 39.2446 1.51818Z" fill="white"/>
<path d="M63.7292 42.0752H20.6426V63.3081H79.3793V42.0752H63.7292ZM77.8382 61.7682H22.162V43.5717H77.8382V61.7682Z" fill="white"/>
<path d="M92.316 20.6255L91.5997 20.3002L76.579 13.7286L73.9309 12.5791L74.4736 15.4203L77.7295 32.3806L79.4008 41.0993L79.5528 41.9018L80.2908 42.2271L95.6153 48.7987L98.2851 49.9481L97.6991 47.107L92.4679 21.4063L92.316 20.6255ZM80.8769 40.839L79.2055 32.1203L75.9496 15.16L90.9702 21.7316L96.2014 47.4323L80.8769 40.8607V40.839Z" fill="white"/>
<path d="M25.5482 15.4203L26.0908 12.5791L23.4427 13.7286L8.42205 20.3002L7.70575 20.6255L7.55381 21.4063L2.32264 47.107L1.73657 49.9481L4.40642 48.7987L19.7309 42.2271L20.4689 41.9018L20.6209 41.0993L21.793 34.9615L25.5482 15.4203ZM20.2953 34.6795L19.1232 40.8173L3.79865 47.3889L9.02982 21.6882L24.0504 15.1166L20.2953 34.6578V34.6795Z" fill="white"/>
<path d="M70.0239 27.5445C70.0239 31.8605 68.6564 35.9812 66.0516 39.4514L64.2283 41.8805H79.3358L78.9885 40.0803L73.931 13.7724L73.6922 12.5361H63.5771L65.5741 15.0086C68.4827 18.6089 70.0022 22.9465 70.0022 27.5445H70.0239ZM72.4549 14.0543L77.5125 40.3623H67.2889C70.0456 36.6753 71.565 32.2292 71.565 27.5445C71.565 22.4477 69.7634 17.7413 66.7897 14.0543H72.4549Z" fill="white"/>
<path d="M93.9658 20.235C93.8573 19.7144 93.51 19.2807 93.0325 19.0855L74.4303 10.974C74.4303 10.974 74.3869 10.974 74.3652 10.974C74.3218 10.974 74.2784 10.9523 74.235 10.9307C74.1048 10.8873 73.9962 10.8656 73.866 10.8656C73.8443 10.8656 73.8226 10.8656 73.7792 10.8656H63.5556C59.8438 7.85092 55.1336 6.05078 49.9893 6.05078C44.8449 6.05078 40.1347 7.8726 36.423 10.8873H26.2211C26.2211 10.8873 26.1777 10.8873 26.1343 10.8873C26.004 10.8873 25.8738 10.909 25.7653 10.9524C25.7219 10.9524 25.6784 10.9524 25.635 10.9957C25.635 10.9957 25.5916 10.9957 25.5699 10.9957L6.96779 19.1072C6.49026 19.3241 6.14296 19.7578 6.03443 20.2567L0.0218416 49.7745C-0.108395 50.3601 0.108666 50.9674 0.5862 51.3361C0.890086 51.5746 1.23738 51.7048 1.60639 51.7048C1.82345 51.7048 2.04051 51.6614 2.23586 51.5746L18.9279 44.4175V63.3731C18.9279 64.2623 19.6442 64.978 20.5341 64.978H79.4445C80.3344 64.978 81.0507 64.2623 81.0507 63.3731V44.4175L97.7427 51.5746C97.938 51.6614 98.1551 51.7048 98.3722 51.7048C98.7412 51.7048 99.0885 51.5746 99.3924 51.3361C99.8482 50.9674 100.065 50.3601 99.9567 49.7745L93.9441 20.235H93.9658ZM98.3505 50.1866L81.6585 43.0294L79.5313 42.1185V63.3948C79.5313 63.3948 79.4879 63.4815 79.4445 63.4815H20.5558C20.5558 63.4815 20.469 63.4382 20.469 63.3948V42.1185L18.3418 43.0294L1.62809 50.1866L1.54127 50.0781L7.59727 20.4735L26.0692 12.4055L26.1126 12.3838H26.1777L26.2211 12.3621H26.373H36.2059H36.4447H36.9873L37.3997 12.0151C40.9595 9.13053 45.431 7.52559 50.011 7.52559C54.591 7.52559 59.0624 9.10884 62.6222 12.0151L63.0346 12.3621H73.6489H73.8009H73.8877L73.9094 12.4055L92.4681 20.5386L98.4807 50.0781L98.3505 50.1866Z" fill="white"/>
<path d="M21.0116 40.0803L20.6643 41.8805H35.7717L33.9484 39.4514C31.3437 35.9812 29.9762 31.8605 29.9762 27.5445C29.9762 22.9465 31.5174 18.6089 34.4043 15.0086L36.4012 12.5361H26.2862L26.0474 13.7724L21.0116 40.0803ZM27.5451 14.0543H33.2104C30.2367 17.7413 28.4351 22.4477 28.4351 27.5445C28.4351 32.2508 29.9545 36.6753 32.7112 40.3623H22.4876L27.5234 14.0543H27.5451Z" fill="white"/>
<path d="M30.1499 27.5441C30.1499 32.771 32.1686 37.6942 35.8586 41.4463L36.3144 41.9018H63.7075L64.1634 41.4463C67.8534 37.7159 69.8721 32.771 69.8721 27.5441C69.8721 16.6131 60.9726 7.69922 50.011 7.69922C39.0494 7.69922 30.1499 16.5914 30.1499 27.5441ZM50.011 9.2174C60.126 9.2174 68.3309 17.4373 68.3309 27.5224C68.3309 32.3589 66.4642 36.8917 63.0563 40.3402H36.9439C33.5361 36.8917 31.6693 32.3589 31.6693 27.5224C31.6693 17.4156 39.8959 9.2174 49.9893 9.2174H50.011Z" fill="white"/>
<path d="M67.3106 9.2178C67.7882 9.2178 68.2657 9.00091 68.5696 8.61052L70.7402 5.89948C71.3045 5.20545 71.1743 4.1861 70.4797 3.64389C70.1758 3.40532 69.8285 3.29688 69.4812 3.29688C69.0037 3.29688 68.5262 3.51376 68.2223 3.90415L66.0517 6.61519C65.4873 7.30922 65.6175 8.32857 66.3121 8.87078C66.616 9.10935 66.9633 9.2178 67.3106 9.2178ZM66.6594 7.09234L68.83 4.38129C69.0037 4.1861 69.2425 4.05597 69.5029 4.05597C69.6983 4.05597 69.8719 4.12103 70.0239 4.22947C70.3929 4.51142 70.458 5.05363 70.1541 5.42233L67.9835 8.13338C67.8099 8.32857 67.5711 8.4587 67.3106 8.4587C67.1153 8.4587 66.9416 8.39364 66.7897 8.26351C66.4207 7.98156 66.3555 7.43935 66.6594 7.07065V7.09234Z" fill="white"/>
<path d="M38.4849 5.07508C38.6586 5.81248 39.3315 6.28962 40.0478 6.28962C40.178 6.28962 40.3082 6.28962 40.4385 6.24625C41.3067 6.02936 41.8277 5.16183 41.6106 4.29429L40.8509 1.21455C40.6555 0.477144 40.0043 0 39.2663 0C39.1361 0 39.0059 0 38.8756 0.0433767C38.0074 0.26026 37.4864 1.12779 37.7035 1.99533L38.4632 5.07508H38.4849ZM39.071 0.780781C39.071 0.780781 39.2012 0.759092 39.288 0.759092C39.6788 0.759092 40.026 1.01935 40.1129 1.40974L40.8726 4.48949C40.9811 4.94495 40.6989 5.4004 40.2648 5.53053C40.1997 5.53053 40.1346 5.55222 40.0478 5.55222C39.657 5.55222 39.3097 5.29196 39.2229 4.90157L38.4632 1.82182C38.3547 1.36637 38.6369 0.910911 39.071 0.780781Z" fill="white"/>
<path d="M93.9658 20.235C93.8573 19.7144 93.51 19.2807 93.0325 19.0855L74.4303 10.974C74.4303 10.974 74.3869 10.974 74.3652 10.974C74.3218 10.974 74.2784 10.9523 74.235 10.9307C74.1048 10.8873 73.9962 10.8656 73.866 10.8656C73.8443 10.8656 73.8226 10.8656 73.7792 10.8656H63.5556C59.8438 7.85092 55.1336 6.05078 49.9893 6.05078C44.8449 6.05078 40.1347 7.8726 36.423 10.8873H26.2211C26.2211 10.8873 26.1777 10.8873 26.1343 10.8873C26.004 10.8873 25.8738 10.909 25.7653 10.9524C25.7219 10.9524 25.6784 10.9524 25.635 10.9957C25.635 10.9957 25.5916 10.9957 25.5699 10.9957L6.96779 19.1072C6.49026 19.3241 6.14296 19.7578 6.03443 20.2567L0.0218416 49.7745C-0.108395 50.3601 0.108666 50.9674 0.5862 51.3361C0.890086 51.5746 1.23738 51.7048 1.60639 51.7048C1.82345 51.7048 2.04051 51.6614 2.23586 51.5746L18.9279 44.4175V63.3731C18.9279 64.2623 19.6442 64.978 20.5341 64.978H79.4445C80.3344 64.978 81.0507 64.2623 81.0507 63.3731V44.4175L97.7427 51.5746C97.938 51.6614 98.1551 51.7048 98.3722 51.7048C98.7412 51.7048 99.0885 51.5746 99.3924 51.3361C99.8482 50.9674 100.065 50.3601 99.9567 49.7745L93.9441 20.235H93.9658ZM98.9365 50.7505C98.7846 50.8806 98.5892 50.9457 98.3939 50.9457C98.2853 50.9457 98.1551 50.924 98.0683 50.8806L81.3763 43.7235L80.3127 43.268V63.3948C80.3127 63.8719 79.922 64.2406 79.4662 64.2406H20.5558C20.0783 64.2406 19.7093 63.8502 19.7093 63.3948V43.268L18.6457 43.7235L1.95368 50.8806C1.95368 50.8806 1.73662 50.9457 1.62809 50.9457C1.43274 50.9457 1.23738 50.8806 1.08544 50.7505C0.846673 50.5553 0.716437 50.23 0.781555 49.9263L6.79414 20.3868C6.85926 20.1048 7.03291 19.888 7.29338 19.7795L25.8304 11.6898L25.8955 11.6681H25.9823V11.6464C26.0475 11.6464 26.1126 11.603 26.1777 11.603H26.2862H36.2927H36.423H36.6834L36.9005 11.4295C40.5905 8.4365 45.2356 6.7665 49.9893 6.7665C54.7429 6.7665 59.388 8.41481 63.0781 11.4295L63.2951 11.603H73.7357H73.8226C73.8877 11.603 73.9528 11.603 74.1048 11.6464H74.1916V11.6681L92.7286 19.7578C92.9891 19.8663 93.1627 20.1048 93.2278 20.3651L99.2404 49.9046C99.3055 50.2083 99.197 50.5336 98.9365 50.7288V50.7505Z" fill="white"/>
<path d="M59.5617 6.24625C59.6919 6.28962 59.8221 6.28962 59.9524 6.28962C60.6687 6.28962 61.3416 5.79079 61.5152 5.07508L62.2749 1.99533C62.492 1.12779 61.971 0.26026 61.1028 0.0433767C60.9726 0.0216884 60.8423 0 60.7121 0C59.9958 0 59.3229 0.477144 59.1492 1.21455L58.3895 4.29429C58.1725 5.16183 58.6934 6.02936 59.5617 6.24625ZM59.1275 4.48949L59.8873 1.40974C59.9741 1.04104 60.3214 0.759092 60.7121 0.759092C60.7772 0.759092 60.8423 0.759093 60.9074 0.780781C61.3633 0.889223 61.6455 1.36637 61.5369 1.82182L60.7772 4.90157C60.6904 5.27027 60.3431 5.55222 59.9524 5.55222C59.8873 5.55222 59.8221 5.55222 59.7353 5.53053C59.2795 5.42209 58.9973 4.94495 59.1058 4.48949H59.1275Z" fill="white"/>
<path d="M70.8052 27.5442C70.8052 32.0337 69.3726 36.3063 66.6811 39.9065L65.7694 41.1211H78.4458L78.2722 40.2102L73.2146 13.9022L73.1061 13.2949H65.2051L66.2036 14.5312C69.2207 18.2616 70.8052 22.7727 70.8052 27.5442ZM72.4549 14.054L77.5124 40.362H67.2889C70.0455 36.675 71.565 32.2289 71.565 27.5442C71.565 22.4474 69.7634 17.741 66.7896 14.054H72.4549Z" fill="white"/>
<path d="M36.4011 40.9046L36.6181 41.1214H63.3817L63.5988 40.9046C67.1369 37.326 69.0905 32.5762 69.0905 27.5445C69.0905 17.0257 60.5165 8.48047 50.0108 8.48047C39.505 8.48047 30.9094 17.0474 30.9094 27.5445C30.9094 32.5762 32.863 37.3043 36.4011 40.9046ZM50.0108 9.21787C60.1258 9.21787 68.3307 17.4378 68.3307 27.5228C68.3307 32.3593 66.464 36.8922 63.0562 40.3407H36.9437C33.5359 36.8922 31.6691 32.3593 31.6691 27.5228C31.6691 17.4161 39.8958 9.21787 49.9891 9.21787H50.0108Z" fill="white"/>
<path d="M63.7292 42.835H21.4023V62.5497H78.5979V42.835H63.7075H63.7292ZM77.8382 61.7689H22.1621V43.5724H77.8382V61.7689Z" fill="white"/>
<path d="M91.6431 21.1674L91.2741 21.0156L76.2535 14.444L74.9294 13.8584L75.2116 15.2681L78.4675 32.2284L80.1389 40.9472L80.2257 41.3375L80.5947 41.4894L95.9192 48.0609L97.265 48.6248L96.9828 47.1934L91.7517 21.4927L91.6648 21.1023L91.6431 21.1674ZM80.8769 40.8387L79.2055 32.12L75.9496 15.1597L90.9702 21.7313L96.2014 47.432L80.8769 40.8604V40.8387Z" fill="white"/>
<path d="M21.5759 41.1211H34.2523L33.3406 39.9065C30.6491 36.3063 29.2165 32.0337 29.2165 27.5442C29.2165 22.7727 30.801 18.2616 33.8182 14.5312L34.8167 13.2949H26.9156L26.8071 13.9022L21.7713 40.2102L21.5976 41.1211H21.5759ZM27.5451 14.054H33.2104C30.2367 17.741 28.4351 22.4474 28.4351 27.5442C28.4351 32.2505 29.9545 36.675 32.7112 40.362H22.4876L27.5234 14.054H27.5451Z" fill="white"/>
<path d="M25.0707 13.8584L23.7466 14.444L8.72601 21.0156L8.35701 21.1674L8.27018 21.5578L3.03902 47.2585L2.75684 48.6899L4.10261 48.126L19.4271 41.5544L19.7961 41.4026L19.8829 41.0122L21.0551 34.8744L24.8102 15.3332L25.0924 13.9235L25.0707 13.8584ZM20.2954 34.6792L19.1232 40.817L3.79873 47.3886L9.0299 21.6879L24.0505 15.1163L20.2954 34.6575V34.6792Z" fill="white"/>
<path d="M31.4304 8.61052C31.756 9.00091 32.2118 9.2178 32.6894 9.2178C33.0367 9.2178 33.4057 9.10935 33.6878 8.87078C34.3824 8.30689 34.491 7.30922 33.9483 6.61519L31.7777 3.90415C31.4521 3.51376 30.9963 3.29688 30.5187 3.29688C30.1715 3.29688 29.8024 3.40532 29.5203 3.64389C28.8257 4.20779 28.7171 5.20545 29.2598 5.89948L31.4304 8.61052ZM29.9978 4.22947C30.1497 4.09934 30.3451 4.03428 30.5187 4.03428C30.7792 4.03428 31.018 4.14272 31.1916 4.3596L33.3622 7.07065C33.6444 7.43935 33.601 7.98156 33.232 8.26351C33.0801 8.39364 32.8847 8.4587 32.7111 8.4587C32.4506 8.4587 32.2118 8.35026 32.0382 8.13338L29.8676 5.42233C29.5854 5.05363 29.6288 4.51142 29.9978 4.22947Z" fill="white"/>
</g>
<defs>
<clipPath id="clip0_1141_490">
<rect width="100" height="65" fill="white"/>
</clipPath>
</defs>
</svg>
