<svg width="72" height="74" viewBox="0 0 72 74" fill="none" xmlns="http://www.w3.org/2000/svg">
<path d="M53.3975 27.7186C53.5137 27.7186 53.6133 27.6855 53.7128 27.6359L63.0877 22.4267L63.3864 22.8567C64.216 24.0143 65.5434 24.7089 66.9538 24.7089C69.3598 24.7089 71.3343 22.7575 71.3343 20.3431C71.3343 17.9286 69.3764 15.9773 66.9538 15.9773C64.5313 15.9773 62.5733 17.9286 62.5733 20.3431C62.5733 20.4257 62.5733 20.5084 62.6065 20.6077L62.6729 21.1699L53.2316 26.4122H37.3689V15.9442H43.3257L43.4419 16.3742C43.9397 18.309 45.6819 19.6485 47.6565 19.6485C50.0624 19.6485 52.0369 17.6971 52.0369 15.2827C52.0369 12.8683 50.079 10.9169 47.6565 10.9169C45.6653 10.9169 43.9397 12.273 43.4419 14.1913L43.3257 14.6212H37.3689V2.01995C37.3689 1.65613 37.0703 1.375 36.7218 1.375C35.8258 1.375 34.88 1.42461 33.8015 1.5073H33.536L33.3037 1.54037C32.4243 1.62306 31.5283 1.73882 30.5659 1.90419L29.9852 2.00341C29.0394 2.18532 28.0936 2.4003 27.181 2.64836L26.7828 2.76412C25.8204 3.04525 24.8746 3.34292 23.9952 3.67366L23.8292 3.73981C23.0992 4.02094 22.3857 4.3186 21.6888 4.63281L21.4233 4.74857C20.6268 5.11239 19.8304 5.54235 19.0173 5.98885L18.4698 6.30306C17.7563 6.71649 17.0594 7.16299 16.3791 7.62602C16.2132 7.74178 15.6822 8.12214 15.6822 8.12214C15.0683 8.56864 14.4709 9.01514 13.8736 9.49472L13.7077 9.62702L13.6413 9.66009L13.5749 9.75931L13.5251 9.80892C5.32832 16.6718 0.632568 26.7098 0.632568 37.3267C0.632568 47.9435 5.32832 57.9815 13.5915 64.9436L13.8736 65.1586C14.4543 65.6382 15.0683 66.0847 15.6656 66.5312C15.6656 66.5312 16.1966 66.9115 16.3625 67.0273C17.0428 67.4903 17.7397 67.9368 18.4532 68.3503L19.0008 68.6645C19.7972 69.111 20.6103 69.5409 21.4067 69.9048L21.6722 70.0205C22.3691 70.3347 23.0826 70.6489 23.8292 70.9301H23.9288L23.9786 70.9962C24.858 71.327 25.8038 71.6412 26.7662 71.9057L27.1478 72.0215C28.077 72.2696 29.0228 72.5011 29.9686 72.6665L30.5493 72.7657C31.4785 72.931 32.4077 73.0468 33.3867 73.146L33.7683 73.1791C34.8468 73.2618 35.8092 73.3114 36.6886 73.3114C37.0537 73.3114 37.3358 73.0137 37.3358 72.6665V60.0652H43.2926L43.4087 60.4951C43.9065 62.43 45.6487 63.7695 47.6233 63.7695C50.0292 63.7695 52.0038 61.8181 52.0038 59.4037C52.0038 56.9893 50.0458 55.0379 47.6233 55.0379C45.6321 55.0379 43.9065 56.3939 43.4087 58.3122L43.2926 58.7422H37.3358V48.2742H53.1984L62.6397 53.5165L62.5733 54.0788C62.5733 54.1614 62.5402 54.2441 62.5402 54.3433C62.5402 56.7412 64.4981 58.7091 66.9206 58.7091C69.3432 58.7091 71.3011 56.7578 71.3011 54.3433C71.3011 51.9289 69.3432 49.9775 66.9206 49.9775C65.5103 49.9775 64.1828 50.6721 63.3532 51.8297L63.0545 52.2597L53.6796 47.0505C53.5801 47.0009 53.4805 46.9678 53.3644 46.9678H37.3358V37.9385H57.6619L57.778 38.3685C58.2758 40.3033 60.0181 41.6428 61.9926 41.6428C64.3985 41.6428 66.3731 39.6915 66.3731 37.2771C66.3731 34.8626 64.4151 32.9113 61.9926 32.9113C60.0015 32.9113 58.2758 34.2508 57.778 36.1856L57.6619 36.6156H37.3358V27.5863H53.3644L53.3975 27.7186ZM66.9538 17.2837C68.6463 17.2837 70.0235 18.6563 70.0235 20.3431C70.0235 22.0298 68.6463 23.4024 66.9538 23.4024C65.2614 23.4024 63.8842 22.0298 63.8842 20.3431C63.8842 18.6563 65.2614 17.2837 66.9538 17.2837ZM47.6565 12.2564C49.3489 12.2564 50.7261 13.629 50.7261 15.3158C50.7261 17.0026 49.3489 18.3751 47.6565 18.3751C45.964 18.3751 44.5868 17.0026 44.5868 15.3158C44.5868 13.629 45.964 12.2564 47.6565 12.2564ZM15.5495 9.89161C16.0472 9.51126 16.545 9.14744 17.0594 8.80016C17.2917 8.65133 17.5074 8.48595 17.7397 8.33712C18.3536 7.94023 18.9842 7.55988 19.6147 7.19606L20.0461 6.96454C20.5439 6.68341 21.0583 6.43535 21.5726 6.1873L22.8835 5.55889L22.3857 6.91493C21.3901 9.59394 20.5273 12.521 19.8304 15.6134L19.5981 16.6553L18.8514 15.878C17.3913 14.3897 16.1302 12.7029 15.0849 10.8838L14.836 10.4539L15.5661 9.89161H15.5495ZM1.9434 36.1525C2.27525 26.7925 6.30729 18.1436 13.2763 11.7934L13.8072 11.3138L14.1723 11.9257C15.4997 14.1582 17.159 16.1757 19.0671 17.9121L19.2994 18.1271L19.2331 18.4413C18.1877 23.9812 17.6236 29.9511 17.5572 36.1691V36.7479H1.91021V36.1525H1.9434ZM13.8072 63.4884L13.2763 63.0088C6.30729 56.6585 2.27525 48.0096 1.9434 38.6496V38.0543H17.5572V38.6331C17.6236 44.8676 18.1877 50.8209 19.2496 56.3609L19.316 56.6751L19.0837 56.8901C17.1756 58.6264 15.5329 60.644 14.1889 62.8765L13.8238 63.4884H13.8072ZM21.5726 68.5983C21.0583 68.3503 20.5439 68.1022 20.0461 67.8211L19.6147 67.5896C18.9842 67.2257 18.3536 66.8454 17.7397 66.4485C17.5074 66.2997 17.2751 66.1508 17.0594 65.9855C16.545 65.6382 16.0472 65.2744 15.4831 64.8444L14.8194 64.3152L15.0683 63.8853C16.1136 62.0662 17.3747 60.3794 18.8348 58.891L19.5815 58.1138L19.8138 59.1556C20.5107 62.2481 21.3735 65.1751 22.3691 67.8542L22.8669 69.2102L21.556 68.5818L21.5726 68.5983ZM36.0581 72.0877H35.4608C34.6145 72.038 33.7683 71.9719 32.9221 71.8727L32.557 71.8396C31.7108 71.7404 30.848 71.6081 29.9852 71.4427C28.2429 71.0954 26.5007 70.6158 24.8248 70.004L24.5759 69.9213L24.4764 69.6732C23.0162 66.2335 21.7717 62.1323 20.826 57.5019L20.7596 57.1546L21.0417 56.9397C25.1733 53.5992 30.1511 51.6974 35.4608 51.4328L36.0747 51.3997V72.0877H36.0581ZM36.0581 50.1098H35.494C30.3004 50.3744 25.3724 52.1108 21.191 55.1537L20.4277 55.7159L20.2618 54.7898C19.3824 49.6964 18.9012 44.2722 18.8348 38.6496V38.0708H36.0249V50.1264L36.0581 50.1098ZM36.0581 36.7479H18.8514V36.1691C18.9178 30.5464 19.399 25.1223 20.2784 20.0289L20.4443 19.1028L21.2076 19.665C25.3724 22.7079 30.317 24.4443 35.5106 24.6758H36.0747V36.7479H36.0581ZM36.0581 23.419L35.4442 23.3859C30.1345 23.1213 25.1401 21.2195 21.0251 17.879L20.743 17.664L20.8094 17.3168C21.7551 12.6864 22.9996 8.58518 24.4598 5.14546L24.5759 4.91394L24.8082 4.83125C26.5007 4.21938 28.2429 3.73981 30.0018 3.39253C30.848 3.22716 31.6942 3.09486 32.5404 2.99564L32.9221 2.96256C33.7683 2.86334 34.5979 2.79719 35.4608 2.76412H36.0581V23.4355V23.419ZM47.6565 56.427C49.3489 56.427 50.7261 57.7996 50.7261 59.4864C50.7261 61.1732 49.3489 62.5457 47.6565 62.5457C45.964 62.5457 44.5868 61.1732 44.5868 59.4864C44.5868 57.7996 45.964 56.427 47.6565 56.427ZM66.9538 51.3832C68.6463 51.3832 70.0235 52.7558 70.0235 54.4426C70.0235 56.1293 68.6463 57.5019 66.9538 57.5019C65.2614 57.5019 63.8842 56.1293 63.8842 54.4426C63.8842 52.7558 65.2614 51.3832 66.9538 51.3832ZM62.0092 34.3334C63.7017 34.3334 65.0788 35.706 65.0788 37.3928C65.0788 39.0796 63.7017 40.4522 62.0092 40.4522C60.3167 40.4522 58.9395 39.0796 58.9395 37.3928C58.9395 35.706 60.3167 34.3334 62.0092 34.3334Z" fill="white"/>
<path d="M18.4199 16.3081L19.9133 17.8461L20.3779 15.7459C21.0748 12.6865 21.921 9.79253 22.9166 7.13005L23.9287 4.41797L21.3237 5.67479C20.7927 5.92284 20.2783 6.18744 19.7639 6.46857L19.6146 6.55125C19.515 6.60087 19.4321 6.65048 19.3325 6.70009C18.7352 7.03083 18.1047 7.41119 17.4244 7.85769C17.1921 8.00652 16.9598 8.17189 16.7275 8.32072C16.1965 8.68454 15.6821 9.04836 15.1512 9.46179L14.8525 9.6933L14.056 10.3052L14.5538 11.1816C15.6323 13.0503 16.9266 14.7702 18.4033 16.2916L18.4199 16.3081ZM15.8978 10.3548C16.379 9.97443 16.8768 9.62716 17.3912 9.27988C17.6069 9.13104 17.8392 8.98221 18.0549 8.83338C18.6522 8.43649 19.2828 8.05613 19.8967 7.70885C20.0294 7.62617 20.1788 7.56002 20.3115 7.47733C20.8093 7.21274 21.3071 6.96468 21.8214 6.71663C20.8093 9.42871 19.9465 12.3558 19.2496 15.4813C17.8392 14.0426 16.5947 12.4054 15.566 10.6028C15.6821 10.5202 15.7817 10.4375 15.8978 10.3548Z" fill="white"/>
<path d="M16.9764 37.3434H18.1213V36.2023C18.2043 30.0009 18.7684 24.0806 19.7972 18.5738L19.9133 17.9453L19.4322 17.5154C17.5572 15.8121 15.9477 13.8441 14.6534 11.6612L13.9234 10.4375L12.8614 11.3967C5.77631 17.8461 1.6779 26.6439 1.34604 36.1527L1.29626 37.3599H16.9598L16.9764 37.3434ZM13.6579 12.2235C15.0351 14.5222 16.7275 16.5728 18.6523 18.3422C17.6069 23.8822 17.0262 29.9017 16.9598 36.1692H2.50754C2.83939 26.6935 7.07054 18.2099 13.6413 12.2235H13.6579Z" fill="white"/>
<path d="M32.8557 2.36726H32.7727L32.474 2.41687C31.5448 2.53263 30.6986 2.66493 29.869 2.8303C28.0935 3.17758 26.3347 3.67369 24.5925 4.3021L24.1279 4.46747L23.9288 4.93051C22.452 8.4033 21.2075 12.5376 20.2452 17.2176L20.0958 17.9121L20.6434 18.3586C24.8579 21.7653 29.9685 23.7167 35.4109 23.9813L36.6388 24.0474V2.13574L35.4275 2.18535C34.6311 2.21843 33.7849 2.28458 32.8557 2.3838V2.36726ZM35.4773 22.8071C30.2506 22.5425 25.3391 20.6242 21.3901 17.4326C22.3027 12.9841 23.5139 8.86634 25.0073 5.36048C26.6666 4.76514 28.359 4.28557 30.0847 3.93829C30.0847 3.93829 30.0847 3.93829 30.1013 3.93829C30.9309 3.77292 31.7605 3.65716 32.6068 3.5414C32.7229 3.5414 32.8557 3.50832 32.9718 3.50832C33.8014 3.42564 34.6311 3.34295 35.4607 3.32641V22.8071H35.4773Z" fill="white"/>
<path d="M53.3975 28.314C53.6132 28.314 53.8123 28.2643 53.9948 28.1651L62.9051 23.204C63.8011 24.4774 65.2779 25.3042 66.9538 25.3042C69.6916 25.3042 71.915 23.0882 71.915 20.3596C71.915 17.631 69.6916 15.415 66.9538 15.415C64.216 15.415 61.9925 17.631 61.9925 20.3596C61.9925 20.525 62.0257 20.6904 62.0423 20.8723L53.0656 25.8665H37.933V16.5726H42.8611C43.4086 18.7059 45.3334 20.2935 47.6398 20.2935C50.3776 20.2935 52.601 18.0775 52.601 15.3489C52.601 12.6202 50.3776 10.4043 47.6398 10.4043C45.3334 10.4043 43.4086 11.9918 42.8611 14.1251H37.933V2.10265C37.933 1.42463 37.3855 0.878906 36.7052 0.878906C35.7096 0.878906 34.714 0.928519 33.7351 1.0112C33.6355 1.0112 33.5525 1.0112 33.453 1.0112C33.37 1.0112 33.3036 1.0112 33.2207 1.02774C32.2915 1.11043 31.3623 1.24272 30.4497 1.40809C30.3833 1.40809 30.3169 1.42463 30.2506 1.44117C30.1178 1.45771 29.9851 1.49078 29.8524 1.50732C28.89 1.68922 27.9276 1.90421 26.9984 2.1688C26.8657 2.20188 26.7329 2.25149 26.6002 2.28456C25.6378 2.56569 24.692 2.86336 23.7794 3.21064C23.7296 3.22718 23.6964 3.24371 23.6467 3.26025C23.6467 3.26025 23.6301 3.27679 23.6135 3.27679C22.8834 3.55792 22.1533 3.87212 21.4398 4.18633C21.3403 4.23594 21.2573 4.26901 21.1577 4.31862C20.3281 4.71552 19.5151 5.12894 18.7186 5.57544C18.5361 5.67467 18.337 5.79043 18.1545 5.90619C17.4244 6.33615 16.7109 6.78265 16.0306 7.24569C15.7983 7.41106 15.566 7.57643 15.3171 7.7418C14.6866 8.1883 14.0726 8.65134 13.4919 9.13092C13.3923 9.21361 13.2928 9.27976 13.1932 9.36244C13.16 9.37898 13.1434 9.41205 13.1268 9.44513C5.12913 16.1592 0.0351562 26.1972 0.0351562 37.4094C0.0351562 48.6215 5.12913 58.6761 13.1268 65.3736C13.16 65.4067 13.1766 65.4398 13.1932 65.4563C13.2928 65.539 13.3923 65.6051 13.4919 65.6878C14.0892 66.1674 14.7032 66.6304 15.3171 67.0769C15.5494 67.2423 15.7817 67.4242 16.0306 67.573C16.7275 68.0526 17.441 68.4991 18.1545 68.9125C18.337 69.0283 18.5361 69.1275 18.7186 69.2433C19.5151 69.6898 20.3281 70.1198 21.1577 70.5001C21.2573 70.5497 21.3403 70.5828 21.4398 70.6324C22.1533 70.9632 22.8834 71.2608 23.6135 71.5419C23.6135 71.5419 23.6301 71.5585 23.6467 71.5585C23.6964 71.575 23.7296 71.5916 23.7794 71.6081C24.7086 71.9554 25.6544 72.2696 26.6168 72.5342C26.7495 72.5672 26.8822 72.6169 27.015 72.6499C27.9608 72.9145 28.9066 73.1295 29.8689 73.3114C30.0017 73.3445 30.1344 73.361 30.2672 73.3776C30.3335 73.3776 30.3999 73.3941 30.4663 73.4106C31.3789 73.576 32.3081 73.6918 33.2373 73.791C33.3036 73.791 33.3866 73.791 33.453 73.8075C33.5525 73.8075 33.6355 73.8075 33.7351 73.8075C34.714 73.8902 35.7096 73.9398 36.7052 73.9398C37.3855 73.9398 37.933 73.3941 37.933 72.7161V60.7101H42.8611C43.4086 62.8434 45.3334 64.431 47.6398 64.431C50.3776 64.431 52.601 62.215 52.601 59.4864C52.601 56.7578 50.3776 54.5418 47.6398 54.5418C45.3334 54.5418 43.4086 56.1294 42.8611 58.2627H37.933V48.9688H53.0656L62.0423 53.963C62.0257 54.1284 61.9925 54.2937 61.9925 54.4757C61.9925 57.2043 64.216 59.4202 66.9538 59.4202C69.6916 59.4202 71.915 57.2043 71.915 54.4757C71.915 51.747 69.6916 49.5311 66.9538 49.5311C65.2779 49.5311 63.8011 50.3579 62.9051 51.6313L53.9948 46.6701C53.8123 46.5709 53.5966 46.5213 53.3975 46.5213H37.9496V38.6496H57.247C57.7946 40.7829 59.7193 42.3705 62.0257 42.3705C64.7635 42.3705 66.987 40.1545 66.987 37.4259C66.987 34.6973 64.7635 32.4813 62.0257 32.4813C59.7193 32.4813 57.7946 34.0689 57.247 36.2022H37.9496V28.3305H53.3975V28.314ZM37.933 37.3432H58.1264L58.3587 36.4668C58.7901 34.7965 60.3001 33.6224 62.0091 33.6224C64.0998 33.6224 65.8089 35.3257 65.8089 37.4094C65.8089 39.493 64.0998 41.1964 62.0091 41.1964C60.2835 41.1964 58.7901 40.0222 58.3587 38.352L58.1264 37.4755H36.7715V47.6624H53.4307L62.341 52.6235L63.2536 53.1362L63.8509 52.2762C64.5644 51.2675 65.7259 50.6721 66.9372 50.6721C69.0279 50.6721 70.7369 52.3754 70.7369 54.4591C70.7369 56.5428 69.0279 58.2461 66.9372 58.2461C64.8465 58.2461 63.1374 56.5428 63.1374 54.4591C63.1374 54.393 63.1374 54.3268 63.154 54.2772L63.1872 54.0788L63.2702 53.3181L62.6065 52.9377L53.6298 47.9435L53.3643 47.7947H36.7549V59.4202H43.7405L43.9728 58.5438C44.4042 56.8735 45.9141 55.6994 47.6232 55.6994C49.7139 55.6994 51.4229 57.4027 51.4229 59.4864C51.4229 61.5701 49.7139 63.2734 47.6232 63.2734C45.8976 63.2734 44.4042 62.0993 43.9728 60.429L43.7405 59.5525H36.7549V72.7326C36.7549 72.7326 36.7218 72.7988 36.6886 72.7988C35.8092 72.7988 34.8634 72.7492 33.818 72.6665H33.6355H33.5359H33.4198L33.3202 72.6499C32.4574 72.5672 31.578 72.4515 30.6322 72.2861H30.5327L30.4331 72.253L30.0515 72.1869C29.1223 72.005 28.1931 71.79 27.2805 71.5419L26.9818 71.4593H26.8988C25.9365 71.1616 25.0239 70.8639 24.161 70.5332L24.0117 70.467C23.3148 70.2024 22.6013 69.9048 21.9044 69.574L21.7717 69.5079L21.6389 69.4417C20.8591 69.0779 20.0626 68.6645 19.2828 68.218C19.1002 68.1188 18.9177 68.003 18.7352 67.9038C17.9885 67.4738 17.3248 67.0439 16.6777 66.5974C16.4952 66.4816 16.3292 66.3493 16.1467 66.2335L15.9808 66.1178C15.3171 65.6382 14.7363 65.1917 14.2054 64.7617C14.139 64.7121 14.0726 64.6625 14.0229 64.6129C14.0229 64.6129 14.0229 64.6129 14.0063 64.6129L13.9399 64.5467L13.9067 64.5137L13.8735 64.4806C5.80944 57.7169 1.19665 47.8443 1.19665 37.3928C1.19665 26.9414 5.82603 17.0687 13.8735 10.3051L13.9067 10.272L13.9399 10.2389C13.9399 10.2389 13.9731 10.2058 14.0063 10.1728C14.0063 10.1728 14.0229 10.1728 14.0394 10.1562C14.1058 10.1066 14.1722 10.057 14.222 10.0074C14.7363 9.57742 15.3171 9.14746 15.9974 8.65135L16.1633 8.53559C16.3293 8.40329 16.5118 8.28753 16.6943 8.17177C17.3414 7.72527 18.0051 7.31184 18.7518 6.86534C18.9343 6.76612 19.1168 6.65036 19.2994 6.55113C20.0792 6.10463 20.8757 5.6912 21.6555 5.32739L21.7883 5.26124L21.921 5.19509C22.6179 4.88089 23.3314 4.58322 24.0615 4.30209C24.0781 4.30209 24.0947 4.28555 24.1113 4.26901H24.1444L24.1776 4.23594C25.0404 3.9052 25.9696 3.60753 26.9154 3.34294H26.9984L27.2971 3.22717C28.2097 2.97912 29.1389 2.76414 30.0681 2.58223L30.4497 2.51608H30.5492L30.6488 2.48301C31.5946 2.31763 32.474 2.20187 33.3368 2.11919H33.4364L33.5525 2.10265H33.6521H33.818C34.88 2.01997 35.8257 1.97036 36.6886 1.97036C36.7218 1.97036 36.7549 2.00343 36.7549 2.0365V15.2166H43.7405L43.9728 14.3401C44.4042 12.6699 45.9141 11.4957 47.6232 11.4957C49.7139 11.4957 51.4229 13.199 51.4229 15.2827C51.4229 17.3664 49.7139 19.0697 47.6232 19.0697C45.8976 19.0697 44.4042 17.8956 43.9728 16.2253L43.7405 15.3489H36.7549V26.9745H53.3643L53.6298 26.8256L62.6065 21.8314L63.2702 21.4511L63.1872 20.6904L63.154 20.4919C63.154 20.4919 63.1374 20.3762 63.1374 20.31C63.1374 18.2263 64.8465 16.523 66.9372 16.523C69.0279 16.523 70.7369 18.2263 70.7369 20.31C70.7369 22.3937 69.0279 24.097 66.9372 24.097C65.7093 24.097 64.5644 23.5017 63.8509 22.4929L63.2536 21.633L62.341 22.1456L53.3975 27.1068H36.7715V37.2936H37.933V37.3432Z" fill="white"/>
<path d="M47.6564 18.9707C49.6807 18.9707 51.3068 17.3335 51.3068 15.3325C51.3068 13.3315 49.6641 11.6943 47.6564 11.6943C45.6487 11.6943 44.006 13.3315 44.006 15.3325C44.006 17.3335 45.6487 18.9707 47.6564 18.9707ZM47.6564 12.8354C49.0336 12.8354 50.1453 13.9434 50.1453 15.316C50.1453 16.6885 49.0336 17.7965 47.6564 17.7965C46.2792 17.7965 45.1675 16.6885 45.1675 15.316C45.1675 13.9434 46.2792 12.8354 47.6564 12.8354Z" fill="white"/>
<path d="M66.9538 23.997C68.9781 23.997 70.6042 22.3599 70.6042 20.3589C70.6042 18.3579 68.9615 16.7207 66.9538 16.7207C64.946 16.7207 63.3033 18.3579 63.3033 20.3589C63.3033 22.3599 64.946 23.997 66.9538 23.997ZM66.9538 17.8618C68.331 17.8618 69.4427 18.9698 69.4427 20.3423C69.4427 21.7149 68.331 22.8229 66.9538 22.8229C65.5766 22.8229 64.4648 21.7149 64.4648 20.3423C64.4648 18.9698 65.5766 17.8618 66.9538 17.8618Z" fill="white"/>
<path d="M20.66 56.4768L20.1124 56.9233L20.2618 57.6178C21.2241 62.2978 22.4686 66.4321 23.9454 69.9049L24.1611 70.3679L24.6423 70.5333C26.3513 71.1617 28.1267 71.6413 29.9188 72.0051C30.7318 72.1705 31.578 72.3028 32.5072 72.402L32.8059 72.4351H32.8889C33.8181 72.5508 34.6643 72.617 35.4607 72.6335L36.672 72.6831V50.7715L35.4441 50.8376C30.0017 51.1022 24.9077 53.0536 20.6766 56.4602L20.66 56.4768ZM35.4773 71.4759C34.6477 71.4429 33.818 71.3767 32.9884 71.294C32.8723 71.294 32.7395 71.261 32.6234 71.261C31.7771 71.1617 30.9475 71.0294 30.1179 70.8641C30.1179 70.8641 30.1179 70.8641 30.1013 70.8641C28.3756 70.5168 26.6666 70.0537 25.0239 69.4419C23.5305 65.936 22.3193 61.8348 21.4067 57.3698C25.3557 54.1781 30.2506 52.2598 35.4939 51.9952V71.4759H35.4773Z" fill="white"/>
<path d="M47.6564 63.124C49.6807 63.124 51.3068 61.4868 51.3068 59.4858C51.3068 57.4848 49.6641 55.8477 47.6564 55.8477C45.6487 55.8477 44.006 57.4848 44.006 59.4858C44.006 61.4868 45.6487 63.124 47.6564 63.124ZM47.6564 57.0052C49.0336 57.0052 50.1453 58.1132 50.1453 59.4858C50.1453 60.8584 49.0336 61.9664 47.6564 61.9664C46.2792 61.9664 45.1675 60.8584 45.1675 59.4858C45.1675 58.1132 46.2792 57.0052 47.6564 57.0052Z" fill="white"/>
<path d="M19.4487 37.4756H18.2706V38.6497C18.3536 44.3054 18.8348 49.7627 19.7142 54.8892L20.0295 56.7413L21.5394 55.6333C25.6046 52.6566 30.4497 50.9533 35.5105 50.7218L36.6222 50.6722V37.4756H19.4321H19.4487ZM35.4773 49.5477C30.1013 49.7957 25.0571 51.6148 20.8591 54.6742C19.9797 49.6304 19.5151 44.1731 19.4487 38.6166H35.4773V49.5311V49.5477Z" fill="white"/>
<path d="M21.5394 19.1851L20.0295 18.0771L19.7142 19.9293C18.8348 25.0393 18.3536 30.5131 18.2872 36.1687V37.3429H19.4487H36.6388V24.1463L35.5271 24.0967C30.4497 23.8651 25.6212 22.1783 21.556 19.1851H21.5394ZM35.4773 36.1687H19.4487C19.5151 30.6123 19.9963 25.1716 20.8591 20.1112C25.0571 23.1706 30.1013 24.9897 35.4773 25.2377V36.1522V36.1687Z" fill="white"/>
<path d="M62.0092 41.0468C64.0335 41.0468 65.6596 39.4097 65.6596 37.4087C65.6596 35.4077 64.0169 33.7705 62.0092 33.7705C60.0014 33.7705 58.3588 35.4077 58.3588 37.4087C58.3588 39.4097 60.0014 41.0468 62.0092 41.0468ZM62.0092 34.9116C63.3864 34.9116 64.4981 36.0196 64.4981 37.3921C64.4981 38.7647 63.3864 39.8727 62.0092 39.8727C60.632 39.8727 59.5203 38.7647 59.5203 37.3921C59.5203 36.0196 60.632 34.9116 62.0092 34.9116Z" fill="white"/>
<path d="M19.4488 57.3202L19.9299 56.8902L19.8138 56.2618C18.7685 50.7549 18.2043 44.8181 18.1379 38.6333V37.4922H1.31287L1.36264 38.6994C1.71109 48.2248 5.79291 57.006 12.878 63.4554L13.94 64.4146L14.67 63.1908C15.9809 61.0079 17.5904 59.04 19.4488 57.3367V57.3202ZM13.6745 62.579C7.10374 56.5925 2.87259 48.109 2.54073 38.6333H16.993C17.0594 44.9008 17.6401 50.9369 18.6855 56.4602C16.7441 58.2132 15.0683 60.2638 13.6911 62.579H13.6745Z" fill="white"/>
<path d="M66.9538 58.0966C68.9781 58.0966 70.6042 56.4595 70.6042 54.4585C70.6042 52.4575 68.9615 50.8203 66.9538 50.8203C64.946 50.8203 63.3033 52.4575 63.3033 54.4585C63.3033 56.4595 64.946 58.0966 66.9538 58.0966ZM66.9538 51.9614C68.331 51.9614 69.4427 53.0694 69.4427 54.4419C69.4427 55.8145 68.331 56.9225 66.9538 56.9225C65.5766 56.9225 64.4648 55.8145 64.4648 54.4419C64.4648 53.0694 65.5766 51.9614 66.9538 51.9614Z" fill="white"/>
<path d="M20.3945 59.0563L19.9299 56.9561L18.4365 58.494C16.9432 60.0154 15.649 61.7353 14.587 63.604L14.0892 64.4804L14.8857 65.0923L15.2341 65.3569C15.7319 65.7373 16.2463 66.1011 16.7773 66.4649C17.0096 66.6137 17.2419 66.7791 17.4742 66.9279C18.1545 67.3744 18.785 67.7548 19.3823 68.0855C19.4819 68.1351 19.5648 68.1847 19.6644 68.2344L19.8303 68.317C20.3447 68.5982 20.8591 68.8462 21.39 69.0943L23.9951 70.3511L22.983 67.639C21.9874 64.9765 21.1412 62.0826 20.4443 59.0232L20.3945 59.0563ZM20.3281 67.3248C20.1788 67.2421 20.046 67.176 19.8967 67.0933C19.2662 66.746 18.6522 66.3657 18.0549 65.9688C17.8226 65.8199 17.6069 65.6711 17.3912 65.5223C16.8934 65.175 16.3956 64.8277 15.8978 64.4474C15.7817 64.3647 15.6821 64.282 15.566 64.1993C16.5947 62.3968 17.8392 60.7596 19.2496 59.3209C19.9631 62.4464 20.8259 65.39 21.8215 68.0855C21.3237 67.8375 20.8093 67.5894 20.3115 67.3248H20.3281Z" fill="white"/>
<path d="M62.0091 40.4683C63.7016 40.4683 65.0788 39.0958 65.0788 37.409C65.0788 35.7222 63.7016 34.3496 62.0091 34.3496C60.3167 34.3496 58.9395 35.7222 58.9395 37.409C58.9395 39.0958 60.3167 40.4683 62.0091 40.4683ZM62.0091 34.9119C63.3863 34.9119 64.498 36.0199 64.498 37.3924C64.498 38.765 63.3863 39.873 62.0091 39.873C60.6319 39.873 59.5202 38.765 59.5202 37.3924C59.5202 36.0199 60.6319 34.9119 62.0091 34.9119Z" fill="white"/>
<path d="M18.8348 15.8943L19.5814 16.6716L19.8137 15.6298C20.5106 12.5373 21.3735 9.62678 22.369 6.93124L22.8668 5.5752L21.556 6.20361C21.0416 6.45166 20.5272 6.69972 20.0294 6.98085L19.8635 7.06353L19.598 7.21237C19.0007 7.54311 18.3868 7.92346 17.7231 8.35343C17.4908 8.50226 17.275 8.6511 17.0427 8.81647C16.5284 9.18029 16.014 9.5441 15.483 9.94099L15.1844 10.1725L14.7861 10.4867L15.035 10.9167C16.0804 12.7358 17.358 14.4225 18.8016 15.9109L18.8348 15.8943ZM15.8978 10.3544C16.379 9.97406 16.8768 9.62678 17.3912 9.27951C17.6069 9.13067 17.8392 8.98184 18.0549 8.83301C18.6522 8.43612 19.2828 8.05576 19.8967 7.70848C20.0294 7.6258 20.1788 7.55965 20.3115 7.47696C20.8093 7.21237 21.3071 6.96431 21.8215 6.71626C20.8093 9.42834 19.9465 12.3554 19.2496 15.4809C17.8392 14.0422 16.5947 12.405 15.566 10.6025C15.6821 10.5198 15.7817 10.4371 15.8978 10.3544Z" fill="white"/>
<path d="M53.3975 28.314C53.6132 28.314 53.8123 28.2643 53.9948 28.1651L62.9051 23.204C63.8011 24.4774 65.2779 25.3042 66.9538 25.3042C69.6916 25.3042 71.915 23.0882 71.915 20.3596C71.915 17.631 69.6916 15.415 66.9538 15.415C64.216 15.415 61.9925 17.631 61.9925 20.3596C61.9925 20.525 62.0257 20.6904 62.0423 20.8723L53.0656 25.8665H37.933V16.5726H42.8611C43.4086 18.7059 45.3334 20.2935 47.6398 20.2935C50.3776 20.2935 52.601 18.0775 52.601 15.3489C52.601 12.6202 50.3776 10.4043 47.6398 10.4043C45.3334 10.4043 43.4086 11.9918 42.8611 14.1251H37.933V2.10265C37.933 1.42463 37.3855 0.878906 36.7052 0.878906C35.7096 0.878906 34.714 0.928519 33.7351 1.0112C33.6355 1.0112 33.5525 1.0112 33.453 1.0112C33.37 1.0112 33.3036 1.0112 33.2207 1.02774C32.2915 1.11043 31.3623 1.24272 30.4497 1.40809C30.3833 1.40809 30.3169 1.42463 30.2506 1.44117C30.1178 1.45771 29.9851 1.49078 29.8524 1.50732C28.89 1.68922 27.9276 1.90421 26.9984 2.1688C26.8657 2.20188 26.7329 2.25149 26.6002 2.28456C25.6378 2.56569 24.692 2.86336 23.7794 3.21064C23.7296 3.22718 23.6964 3.24371 23.6467 3.26025C23.6467 3.26025 23.6301 3.27679 23.6135 3.27679C22.8834 3.55792 22.1533 3.87212 21.4398 4.18633C21.3403 4.23594 21.2573 4.26901 21.1577 4.31862C20.3281 4.71552 19.5151 5.12894 18.7186 5.57544C18.5361 5.67467 18.337 5.79043 18.1545 5.90619C17.4244 6.33615 16.7109 6.78265 16.0306 7.24569C15.7983 7.41106 15.566 7.57643 15.3171 7.7418C14.6866 8.1883 14.0726 8.65134 13.4919 9.13092C13.3923 9.21361 13.2928 9.27976 13.1932 9.36244C13.16 9.37898 13.1434 9.41205 13.1268 9.44513C5.12913 16.1592 0.0351562 26.1972 0.0351562 37.4094C0.0351562 48.6215 5.12913 58.6761 13.1268 65.3736C13.16 65.4067 13.1766 65.4398 13.1932 65.4563C13.2928 65.539 13.3923 65.6051 13.4919 65.6878C14.0892 66.1674 14.7032 66.6304 15.3171 67.0769C15.5494 67.2423 15.7817 67.4242 16.0306 67.573C16.7275 68.0526 17.441 68.4991 18.1545 68.9125C18.337 69.0283 18.5361 69.1275 18.7186 69.2433C19.5151 69.6898 20.3281 70.1198 21.1577 70.5001C21.2573 70.5497 21.3403 70.5828 21.4398 70.6324C22.1533 70.9632 22.8834 71.2608 23.6135 71.5419C23.6135 71.5419 23.6301 71.5585 23.6467 71.5585C23.6964 71.575 23.7296 71.5916 23.7794 71.6081C24.7086 71.9554 25.6544 72.2696 26.6168 72.5342C26.7495 72.5672 26.8822 72.6169 27.015 72.6499C27.9608 72.9145 28.9066 73.1295 29.8689 73.3114C30.0017 73.3445 30.1344 73.361 30.2672 73.3776C30.3335 73.3776 30.3999 73.3941 30.4663 73.4106C31.3789 73.576 32.3081 73.6918 33.2373 73.791C33.3036 73.791 33.3866 73.791 33.453 73.8075C33.5525 73.8075 33.6355 73.8075 33.7351 73.8075C34.714 73.8902 35.7096 73.9398 36.7052 73.9398C37.3855 73.9398 37.933 73.3941 37.933 72.7161V60.7101H42.8611C43.4086 62.8434 45.3334 64.431 47.6398 64.431C50.3776 64.431 52.601 62.215 52.601 59.4864C52.601 56.7578 50.3776 54.5418 47.6398 54.5418C45.3334 54.5418 43.4086 56.1294 42.8611 58.2627H37.933V48.9688H53.0656L62.0423 53.963C62.0257 54.1284 61.9925 54.2937 61.9925 54.4757C61.9925 57.2043 64.216 59.4202 66.9538 59.4202C69.6916 59.4202 71.915 57.2043 71.915 54.4757C71.915 51.747 69.6916 49.5311 66.9538 49.5311C65.2779 49.5311 63.8011 50.3579 62.9051 51.6313L53.9948 46.6701C53.8123 46.5709 53.5966 46.5213 53.3975 46.5213H37.9496V38.6496H57.247C57.7946 40.7829 59.7193 42.3705 62.0257 42.3705C64.7635 42.3705 66.987 40.1545 66.987 37.4259C66.987 34.6973 64.7635 32.4813 62.0257 32.4813C59.7193 32.4813 57.7946 34.0689 57.247 36.2022H37.9496V28.3305H53.3975V28.314ZM37.933 36.7479H57.6784L57.7946 36.3179C58.2923 34.3831 60.0346 33.0436 62.0091 33.0436C64.4151 33.0436 66.3896 34.9949 66.3896 37.4094C66.3896 39.8238 64.4317 41.7752 62.0091 41.7752C60.018 41.7752 58.2923 40.4191 57.7946 38.5008L57.6784 38.0709H37.3523V47.1001H53.3809C53.497 47.1001 53.5966 47.1332 53.6962 47.1828L62.6065 52.1439L63.0711 52.392L63.3697 51.962C64.1994 50.8044 65.5268 50.1099 66.9372 50.1099C69.3431 50.1099 71.3177 52.0612 71.3177 54.4757C71.3177 56.8901 69.3597 58.8414 66.9372 58.8414C64.5146 58.8414 62.5567 56.8901 62.5567 54.4757C62.5567 54.393 62.5567 54.2937 62.5899 54.2111V54.0292L62.6562 53.6488L62.3244 53.4669L53.3477 48.4727L53.215 48.4065H37.3523V58.8745H43.3091L43.4252 58.4446C43.923 56.5097 45.6653 55.1702 47.6398 55.1702C50.0457 55.1702 52.0203 57.1216 52.0203 59.536C52.0203 61.9504 50.0623 63.9018 47.6398 63.9018C45.6487 63.9018 43.923 62.5458 43.4252 60.6275L43.3091 60.1975H37.3523V72.7988C37.3523 73.1626 37.0536 73.4437 36.7052 73.4437C35.8092 73.4437 34.8634 73.3941 33.7848 73.3114H33.6355H33.5194H33.4032L33.3036 73.2949C32.4242 73.2122 31.5282 73.0964 30.5658 72.9311H30.4663L30.3667 72.898L29.9685 72.8318C29.0227 72.6499 28.0769 72.4349 27.1477 72.1869L26.8491 72.1042H26.7661C25.8037 71.8065 24.8579 71.4923 23.9785 71.1616L23.8955 71.1285L23.8126 71.0954C23.0991 70.8308 22.3856 70.5166 21.6721 70.2024L21.556 70.1528L21.4066 70.0867C20.6102 69.7229 19.8137 69.2929 19.0007 68.8464C18.8182 68.7472 18.6356 68.6314 18.4531 68.5322C17.7064 68.0857 17.0096 67.6557 16.3624 67.2092C16.1799 67.0935 15.9974 66.9612 15.8315 66.8289L15.6655 66.7131C14.9852 66.217 14.3879 65.7705 13.8569 65.3405C13.8072 65.2909 13.7408 65.2579 13.691 65.2082C13.6578 65.1917 13.6246 65.1586 13.608 65.1421L13.5583 65.0759L13.5085 65.0263C5.31165 58.1469 0.615904 48.1254 0.615904 37.5086C0.615904 26.8918 5.31166 16.8537 13.5417 9.94124C13.5583 9.9247 13.5914 9.89163 13.608 9.85855C13.6412 9.84202 13.6744 9.80894 13.691 9.79241C13.7408 9.75933 13.8072 9.70972 13.8569 9.66011C14.3879 9.23015 14.9852 8.78364 15.6655 8.28753L15.8315 8.17177C16.014 8.03947 16.1799 7.92371 16.3624 7.79142C17.0096 7.34491 17.7064 6.91495 18.4531 6.46845C18.6356 6.35269 18.8182 6.25347 19.0173 6.15424C19.8137 5.70774 20.6268 5.29431 21.4066 4.91396L21.556 4.84781L21.6887 4.7982C22.4022 4.46746 23.1157 4.16979 23.8458 3.88866L23.9121 3.85559H23.9785L23.9951 3.82251C24.8745 3.49177 25.8037 3.17756 26.7827 2.91297H26.8657L27.1809 2.79721C28.1101 2.54915 29.0559 2.33417 29.9851 2.15226L30.3833 2.08612H30.4829L30.5824 2.05304C31.5282 1.88767 32.4242 1.77191 33.3036 1.68923H33.4032L33.5194 1.67269H33.6355H33.7848C34.8634 1.59 35.8092 1.54039 36.7052 1.54039C37.0702 1.54039 37.3523 1.83806 37.3523 2.18534V14.7866H43.3091L43.4252 14.3566C43.923 12.4218 45.6653 11.0823 47.6398 11.0823C50.0457 11.0823 52.0203 13.0337 52.0203 15.4481C52.0203 17.8625 50.0623 19.8139 47.6398 19.8139C45.6487 19.8139 43.923 18.4578 43.4252 16.5395L43.3091 16.1096H37.3523V26.5776H53.215L53.3477 26.5114L62.3244 21.5172L62.6562 21.3353L62.6231 20.955V20.773C62.5899 20.6904 62.5733 20.6077 62.5733 20.5084C62.5733 18.1106 64.5312 16.1427 66.9538 16.1427C69.3763 16.1427 71.3343 18.094 71.3343 20.5084C71.3343 22.9229 69.3763 24.8742 66.9538 24.8742C65.5434 24.8742 64.216 24.1797 63.3863 23.0221L63.0877 22.5921L62.6231 22.8402L53.7127 27.8013C53.6132 27.8509 53.5136 27.884 53.3975 27.884H37.3689V36.9133H37.9496L37.933 36.7479Z" fill="white"/>
<path d="M66.9538 23.4185C68.6463 23.4185 70.0235 22.046 70.0235 20.3592C70.0235 18.6724 68.6463 17.2998 66.9538 17.2998C65.2614 17.2998 63.8842 18.6724 63.8842 20.3592C63.8842 22.046 65.2614 23.4185 66.9538 23.4185ZM66.9538 17.8621C68.331 17.8621 69.4427 18.9701 69.4427 20.3426C69.4427 21.7152 68.331 22.8232 66.9538 22.8232C65.5766 22.8232 64.4649 21.7152 64.4649 20.3426C64.4649 18.9701 65.5766 17.8621 66.9538 17.8621Z" fill="white"/>
<path d="M47.6565 18.3912C49.3489 18.3912 50.7261 17.0186 50.7261 15.3318C50.7261 13.645 49.3489 12.2725 47.6565 12.2725C45.964 12.2725 44.5868 13.645 44.5868 15.3318C44.5868 17.0186 45.964 18.3912 47.6565 18.3912ZM47.6565 12.8347C49.0336 12.8347 50.1454 13.9427 50.1454 15.3153C50.1454 16.6879 49.0336 17.7958 47.6565 17.7958C46.2793 17.7958 45.1675 16.6879 45.1675 15.3153C45.1675 13.9427 46.2793 12.8347 47.6565 12.8347Z" fill="white"/>
<path d="M16.9764 36.7475H17.5572V36.1687C17.6235 29.9343 18.1877 23.9809 19.2496 18.441L19.316 18.1268L19.0837 17.9118C17.1755 16.1754 15.5328 14.1579 14.1888 11.9253L13.8238 11.3135L13.2928 11.7931C6.32386 18.1433 2.29182 26.7922 1.95996 36.1522V36.7475H2.54071H16.993H16.9764ZM13.6579 12.223C15.0351 14.5217 16.7275 16.5723 18.6523 18.3417C17.6069 23.8817 17.0262 29.9012 16.9598 36.1687H2.50752C2.83938 26.693 7.07053 18.2094 13.6413 12.223H13.6579Z" fill="white"/>
<path d="M47.6565 62.5455C49.3489 62.5455 50.7261 61.1729 50.7261 59.4861C50.7261 57.7993 49.3489 56.4268 47.6565 56.4268C45.964 56.4268 44.5868 57.7993 44.5868 59.4861C44.5868 61.1729 45.964 62.5455 47.6565 62.5455ZM47.6565 57.0056C49.0336 57.0056 50.1454 58.1135 50.1454 59.4861C50.1454 60.8587 49.0336 61.9667 47.6565 61.9667C46.2793 61.9667 45.1675 60.8587 45.1675 59.4861C45.1675 58.1135 46.2793 57.0056 47.6565 57.0056Z" fill="white"/>
<path d="M32.922 2.94539H32.8391L32.557 2.97846C31.6444 3.09422 30.8147 3.20998 30.0017 3.37535C28.2595 3.72263 26.5172 4.20221 24.8248 4.81408L24.5925 4.89676L24.4929 5.12828C23.0327 8.568 21.7883 12.6692 20.8425 17.2996L20.7761 17.6469L21.0582 17.8619C25.1898 21.2023 30.1676 23.1041 35.4773 23.3687L36.0912 23.4018V2.71387H35.4939C34.714 2.76348 33.8844 2.82963 32.9718 2.92885L32.922 2.94539ZM35.4773 22.8064C30.2506 22.5419 25.3391 20.6235 21.3901 17.4319C22.3027 12.9834 23.5139 8.86567 25.0073 5.3598C26.6666 4.76447 28.359 4.28489 30.0847 3.93761C30.0847 3.93761 30.0847 3.93761 30.1013 3.93761C30.9309 3.77224 31.7605 3.65648 32.6068 3.54072C32.7229 3.54072 32.8557 3.50765 32.9718 3.50765C33.8014 3.42496 34.6311 3.34228 35.4607 3.32574V22.8064H35.4773Z" fill="white"/>
<path d="M19.4487 38.0536H18.8679V38.6324C18.9343 44.2551 19.4155 49.6958 20.2949 54.7727L20.4608 55.6987L21.2241 55.1365C25.3889 52.0936 30.3335 50.3572 35.5271 50.1257L36.0912 50.0927V38.0371H19.4819L19.4487 38.0536ZM35.4773 49.5469C30.1012 49.795 25.057 51.6141 20.8591 54.6734C19.9796 49.6296 19.515 44.1724 19.4487 38.6159H35.4773V49.5304V49.5469Z" fill="white"/>
<path d="M21.2075 19.6482L20.4442 19.0859L20.2783 20.012C19.3989 25.1054 18.9177 30.5296 18.8513 36.1522V36.731H19.4321H36.0414V24.6755L35.4773 24.6424C30.2837 24.4109 25.3391 22.6745 21.1743 19.6317L21.2075 19.6482ZM35.4773 36.1688H19.4487C19.515 30.6123 19.9962 25.1716 20.859 20.1112C25.057 23.1706 30.1012 24.9897 35.4773 25.2377V36.1522V36.1688Z" fill="white"/>
<path d="M66.9538 57.5181C68.6463 57.5181 70.0235 56.1456 70.0235 54.4588C70.0235 52.772 68.6463 51.3994 66.9538 51.3994C65.2614 51.3994 63.8842 52.772 63.8842 54.4588C63.8842 56.1456 65.2614 57.5181 66.9538 57.5181ZM66.9538 51.9617C68.331 51.9617 69.4427 53.0697 69.4427 54.4422C69.4427 55.8148 68.331 56.9228 66.9538 56.9228C65.5766 56.9228 64.4649 55.8148 64.4649 54.4422C64.4649 53.0697 65.5766 51.9617 66.9538 51.9617Z" fill="white"/>
<path d="M21.025 56.9227L20.7429 57.1377L20.8093 57.4849C21.7717 62.1153 22.9995 66.2165 24.4597 69.6562L24.5758 69.8878L24.8081 69.9705C26.5006 70.5823 28.2263 71.0619 30.0017 71.4092C30.7981 71.558 31.6278 71.6903 32.5404 71.8061L32.8225 71.8391H32.9054C33.818 71.9549 34.6477 72.0045 35.4441 72.0376H36.0414V71.4588V51.3662L35.4275 51.3993C30.1178 51.6639 25.1234 53.5656 21.0084 56.9061L21.025 56.9227ZM35.4773 71.4753C34.6477 71.4423 33.818 71.3761 32.9884 71.2934C32.8722 71.2934 32.7395 71.2604 32.6233 71.2604C31.7771 71.1611 30.9475 71.0288 30.1178 70.8635C30.1178 70.8635 30.1178 70.8635 30.1012 70.8635C28.3756 70.5162 26.6665 70.0531 25.0239 69.4413C23.5305 65.9354 22.3192 61.8342 21.4066 57.3692C25.3557 54.1775 30.2506 52.2592 35.4939 51.9946V71.4753H35.4773Z" fill="white"/>
<path d="M19.0505 56.8895L19.2828 56.6745L19.2164 56.3603C18.1711 50.8204 17.6069 44.8505 17.5405 38.6325V38.0537H1.89355V38.649C2.242 48.009 6.27404 56.658 13.243 63.0082L13.774 63.4878L14.139 62.8759C15.4664 60.6434 17.1257 58.6259 19.0339 56.8895H19.0505ZM13.6744 62.5782C7.10368 56.5918 2.87253 48.1083 2.54067 38.6325H16.993C17.0593 44.9001 17.6401 50.9361 18.6854 56.4595C16.7441 58.2124 15.0682 60.263 13.691 62.5782H13.6744Z" fill="white"/>
<path d="M19.8138 59.1883L19.5815 58.1465L18.8348 58.9237C17.3746 60.4121 16.1136 62.0988 15.0682 63.9179L14.8193 64.3479L15.2176 64.6621L15.5494 64.9267C16.0306 65.2905 16.545 65.6709 17.0594 66.0181C17.2917 66.167 17.5074 66.3324 17.7397 66.4812C18.4034 66.9111 19.0173 67.2915 19.6146 67.6222L19.8801 67.7711L20.0461 67.8538C20.5438 68.1184 21.0582 68.383 21.5726 68.631L22.8834 69.2594L22.3856 67.9034C21.3901 65.2244 20.5272 62.2973 19.8303 59.2049L19.8138 59.1883ZM20.3281 67.3246C20.1788 67.2419 20.0461 67.1757 19.8967 67.0931C19.2662 66.7458 18.6523 66.3654 18.0549 65.9685C17.8226 65.8197 17.6069 65.6709 17.3912 65.522C16.8934 65.1748 16.3956 64.8275 15.8979 64.4471C15.7817 64.3644 15.6822 64.2817 15.566 64.1991C16.5948 62.3965 17.8392 60.7593 19.2496 59.3206C19.9631 62.4461 20.8259 65.3897 21.8215 68.0853C21.3237 67.8372 20.8093 67.5892 20.3115 67.3246H20.3281Z" fill="white"/>
</svg>
