<svg width="81" height="84" viewBox="0 0 81 84" fill="none" xmlns="http://www.w3.org/2000/svg">
<g clip-path="url(#clip0_1142_595)">
<path d="M39.5104 52.6603C36.8003 52.6603 34.5894 50.4218 34.5894 47.6777C34.5894 47.2806 34.2685 46.9737 33.8941 46.9737C33.5197 46.9737 33.1987 47.2986 33.1987 47.6777C33.1987 49.5552 34.0367 51.3244 35.4809 52.552L35.7127 52.7506V57.1013C35.7127 57.4985 36.0336 57.8054 36.4081 57.8054C36.7825 57.8054 37.1034 57.4804 37.1034 57.1013V53.6171L37.8879 53.8338C38.4941 53.9962 39.0112 54.0684 39.5104 54.0684C40.0096 54.0684 40.5089 53.9962 41.1329 53.8338L41.9174 53.6171V57.1013C41.9174 57.4985 42.2383 57.8054 42.6128 57.8054C42.9872 57.8054 43.3081 57.4804 43.3081 57.1013V52.7506L43.5399 52.552C45.0019 51.3244 45.8221 49.5372 45.8221 47.6777C45.8221 44.1574 42.9872 41.287 39.5104 41.287C36.8003 41.287 34.5894 39.0485 34.5894 36.3044C34.5894 33.5604 36.8003 31.3218 39.5104 31.3218C42.2205 31.3218 44.4314 33.5604 44.4314 36.3044C44.4314 36.7016 44.7523 37.0085 45.1267 37.0085C45.5012 37.0085 45.8221 36.6835 45.8221 36.3044C45.8221 34.4269 44.9841 32.6577 43.5399 31.4301L43.3081 31.2316V26.8808C43.3081 26.4837 42.9872 26.1768 42.6128 26.1768C42.2383 26.1768 41.9174 26.5017 41.9174 26.8808V30.365L41.1329 30.1484C40.5267 29.9859 40.0096 29.9137 39.5104 29.9137C39.0112 29.9137 38.512 29.9859 37.9058 30.1484L37.1212 30.365V26.8808C37.1212 26.4837 36.8003 26.1768 36.4259 26.1768C36.0515 26.1768 35.7305 26.5017 35.7305 26.8808V31.2316L35.4988 31.4301C34.0367 32.6577 33.2166 34.445 33.2166 36.3044C33.2166 39.8247 36.0515 42.6951 39.5282 42.6951C42.2384 42.6951 44.4492 44.9337 44.4492 47.6777C44.4492 50.4218 42.2384 52.6603 39.5282 52.6603H39.5104Z" fill="white"/>
<path d="M39.5104 0.631836C22.7149 0.631836 7.82719 10.8317 1.58682 26.628C1.44418 26.989 1.62248 27.4042 1.97907 27.5487C2.06822 27.5848 2.15736 27.6028 2.24651 27.6028C2.53179 27.6028 2.7814 27.4223 2.88838 27.1515C8.91479 11.8968 23.2855 2.05801 39.5104 2.05801C61.2626 2.05801 78.9674 19.9845 78.9674 42.009C78.9674 64.0335 61.2626 81.96 39.5104 81.96C24.3018 81.96 10.7334 73.3849 4.08296 59.5925L3.19148 57.7511L4.95662 58.7621C5.06359 58.8162 5.1884 58.8523 5.31321 58.8523C5.54499 58.8523 5.77678 58.726 5.90159 58.5274C6.09771 58.2024 6.00856 57.7511 5.68763 57.5525L2.03256 55.2418C1.92558 55.1696 1.80077 55.1334 1.65813 55.1334C1.55116 55.1334 1.44418 55.1515 1.3372 55.2057C1.12325 55.314 0.980609 55.5306 0.962779 55.7833L0.641846 60.1341C0.641846 60.3146 0.695335 60.5132 0.802312 60.6396C0.92712 60.784 1.08759 60.8743 1.3372 60.8923C1.58682 60.8923 1.80077 60.7659 1.92558 60.5313L2.51396 59.5203L3.03102 60.5674C9.98457 74.6305 23.963 83.3501 39.5283 83.3501C62.0471 83.3501 80.3759 64.7917 80.3759 41.991C80.3759 19.1902 62.0471 0.631836 39.5104 0.631836Z" fill="white"/>
<path d="M20.7715 54.5735C20.6467 54.3749 20.4149 54.2486 20.1831 54.2486C20.0405 54.2486 19.9157 54.2847 19.8087 54.3569C19.4878 54.5735 19.3986 55.0068 19.6126 55.3498C24.0521 62.1196 31.5049 66.1815 39.5283 66.1815C52.6865 66.1815 63.4021 55.3317 63.4021 42.0087C63.4021 28.6857 52.6865 17.8359 39.5283 17.8359C29.2941 17.8359 20.2009 24.4072 16.9381 34.1918L16.5994 35.2028L15.8862 34.4085C15.7435 34.264 15.5652 34.1738 15.3691 34.1738C15.3156 34.1738 15.2443 34.1738 15.1908 34.1918C14.8164 34.3002 14.6024 34.6793 14.7094 35.0584L15.8505 39.2647C15.9218 39.4994 16.1001 39.698 16.3319 39.7521C16.3854 39.7702 16.4567 39.7702 16.528 39.7702C16.7063 39.7702 16.8668 39.698 17.0094 39.5716L20.1653 36.5929C20.4506 36.3221 20.4684 35.8708 20.2009 35.6C20.0761 35.4555 19.88 35.3833 19.6839 35.3833C19.5056 35.3833 19.3451 35.4555 19.2025 35.5639L17.4374 37.2067L18.1862 34.8959C21.1994 25.5265 29.7755 19.226 39.5461 19.226C51.9377 19.226 62.0293 29.4439 62.0293 41.9907C62.0293 54.5374 51.9377 64.7553 39.5461 64.7553C31.9863 64.7553 24.9793 60.9462 20.8072 54.5555L20.7715 54.5735Z" fill="white"/>
<path d="M65.6665 24.5881C65.8091 24.5881 65.9518 24.552 66.0588 24.4617C66.3797 24.2451 66.451 23.7938 66.2371 23.4688C60.1928 14.5326 50.1904 9.20703 39.5104 9.20703C21.663 9.20703 7.13184 23.9201 7.13184 41.991C7.13184 60.062 21.663 74.7751 39.5104 74.7751C55.9672 74.7751 69.803 62.2825 71.6573 45.728L71.8712 43.8144L72.8162 45.4933C72.941 45.7099 73.1728 45.8544 73.4224 45.8544C73.5472 45.8544 73.6542 45.8183 73.7612 45.7641C73.9216 45.6738 74.0464 45.5294 74.0999 45.3489C74.1534 45.1684 74.1356 44.9698 74.0464 44.8073L71.996 40.962C71.889 40.7454 71.6573 40.601 71.3898 40.601C71.158 40.601 70.9262 40.7273 70.8014 40.9079L68.3944 44.5365C68.1805 44.8615 68.2696 45.2947 68.5906 45.5113C68.6975 45.5836 68.8223 45.6197 68.9472 45.6197C69.0541 45.6197 69.1789 45.5836 69.2859 45.5294L70.3379 45.0059L70.1774 46.1974C68.1092 61.6867 54.9331 73.3669 39.5104 73.3669C22.4297 73.3669 8.52255 59.2857 8.52255 41.991C8.52255 24.6964 22.4297 10.6152 39.5104 10.6152C49.7268 10.6152 59.3013 15.7241 65.0781 24.2631C65.2029 24.4617 65.4169 24.57 65.6487 24.57L65.6665 24.5881Z" fill="white"/>
<path d="M39.5284 0C22.4655 0 7.34597 10.3623 0.998619 26.3933C0.731174 27.0793 1.05211 27.8556 1.72963 28.1444C1.8901 28.2166 2.05057 28.2347 2.22886 28.2347C2.74592 28.2347 3.24515 27.9097 3.45911 27.3862C9.39637 12.3843 23.5531 2.68988 39.5284 2.68988C60.9418 2.68988 78.3614 20.3275 78.3614 42.009C78.3614 63.6905 60.9418 81.3282 39.5284 81.3282C24.5159 81.3282 11.1437 72.7892 4.65369 59.3217C4.86765 59.4481 5.0816 59.5023 5.31339 59.5023C5.75913 59.5023 6.16921 59.2856 6.41883 58.8704C6.81108 58.2386 6.61495 57.4081 5.99091 57.029L2.33584 54.7183C2.12189 54.5738 1.87227 54.5197 1.64049 54.5197C1.42653 54.5197 1.2304 54.5738 1.03428 54.6641C0.624196 54.8807 0.338922 55.2959 0.303263 55.7653L1.65831 55.8014L5.31339 58.1122C5.31339 58.1122 5.34905 58.1844 5.33122 58.2205H5.24207L1.72963 56.2166L3.5126 59.8994C10.27 73.9085 24.0523 82.6099 39.5106 82.6099C61.6194 82.6099 79.5916 64.4126 79.5916 42.0271C79.5916 19.6415 61.6194 1.40812 39.5284 1.40812C23.036 1.40812 8.41574 11.4275 2.30018 26.9168C2.30018 26.9529 2.26452 26.9529 2.22886 26.9529C2.22886 26.9529 2.21103 26.9529 2.1932 26.9529C2.15754 26.9529 2.13971 26.8807 2.15754 26.8627C8.30877 11.3192 22.9826 1.2637 39.5284 1.2637C61.7085 1.2637 79.7521 19.5332 79.7521 41.991C79.7521 64.4488 61.7085 82.7183 39.5284 82.7183C24.195 82.7183 10.4305 74.1251 3.58391 60.2785L2.47848 58.2205L1.31955 60.2605C1.31955 60.2605 1.24823 60.2244 1.24823 60.1883L1.56917 55.8375L0.321093 55.7473L0.000159367 60.08C-0.0533295 60.8201 0.499389 61.47 1.2304 61.5242C1.26606 61.5242 1.30172 61.5242 1.33738 61.5242C1.81878 61.5242 2.24669 61.2534 2.47848 60.8382C9.48552 75.0097 23.6244 83.982 39.5284 83.982C62.4039 83.982 81.0002 65.1348 81.0002 41.991C81.0002 18.8472 62.386 0 39.5284 0Z" fill="white"/>
<path d="M39.5283 52.0285C37.1569 52.0285 35.2491 50.0788 35.2491 47.6958C35.2491 46.9557 34.6608 46.3599 33.9298 46.3599C33.1987 46.3599 32.6104 46.9557 32.6104 47.6958C32.6104 49.8622 33.6088 51.7758 35.1243 53.0575V57.1194C35.1243 57.8596 35.7127 58.4553 36.4437 58.4553C37.1747 58.4553 37.7631 57.8596 37.7631 57.1194V54.4656C38.3337 54.6281 38.922 54.7364 39.5461 54.7364C40.1701 54.7364 40.7585 54.6281 41.329 54.4656V57.1194C41.329 57.8596 41.9174 58.4553 42.6484 58.4553C43.3795 58.4553 43.9678 57.8596 43.9678 57.1194V53.0575C45.4833 51.7758 46.4818 49.8622 46.4818 47.6958C46.4818 43.8145 43.3616 40.6733 39.5461 40.6733C37.1747 40.6733 35.267 38.7235 35.267 36.3406C35.267 33.9576 37.1926 32.0079 39.5461 32.0079C41.8996 32.0079 43.8252 33.9576 43.8252 36.3406C43.8252 37.0807 44.4136 37.6765 45.1446 37.6765C45.8756 37.6765 46.464 37.0807 46.464 36.3406C46.464 34.1742 45.4655 32.2606 43.95 30.9789V26.917C43.95 26.1768 43.3616 25.5811 42.6306 25.5811C41.8996 25.5811 41.3112 26.1768 41.3112 26.917V29.5707C40.7407 29.4083 40.1523 29.2999 39.5283 29.2999C38.9042 29.2999 38.3158 29.4083 37.7453 29.5707V26.917C37.7453 26.1768 37.1569 25.5811 36.4259 25.5811C35.6949 25.5811 35.1065 26.1768 35.1065 26.917V30.9789C33.591 32.2606 32.5925 34.1742 32.5925 36.3406C32.5925 40.2219 35.7127 43.3631 39.5283 43.3631C41.8996 43.3631 43.8074 45.3128 43.8074 47.6958C43.8074 50.0788 41.8818 52.0285 39.5283 52.0285ZM45.0554 47.6778C45.0554 44.5907 42.5771 42.0633 39.5104 42.0633C36.4437 42.0633 33.8228 39.4818 33.8228 36.3045C33.8228 34.6255 34.5716 33.0188 35.891 31.9176L36.3367 31.5385V26.8809C36.3367 26.8809 36.3724 26.8087 36.4081 26.8087C36.4437 26.8087 36.4794 26.8448 36.4794 26.8809V31.1955L38.0484 30.7622C38.6011 30.6178 39.0647 30.5456 39.4926 30.5456C39.9205 30.5456 40.3841 30.6178 40.9546 30.7622L42.5236 31.1955V26.8809C42.5236 26.8809 42.5593 26.8087 42.5949 26.8087C42.6306 26.8087 42.6663 26.8448 42.6663 26.8809V31.5385L43.112 31.9176C44.4314 33.0369 45.1802 34.6255 45.1802 36.3045C45.1802 36.3406 45.1446 36.3767 45.1089 36.3767C45.0733 36.3767 45.0376 36.3406 45.0376 36.3045C45.0376 33.2174 42.5593 30.69 39.4926 30.69C36.4259 30.69 33.9476 33.1994 33.9476 36.3045C33.9476 39.4096 36.4259 41.9189 39.4926 41.9189C42.5593 41.9189 45.1802 44.5005 45.1802 47.6778C45.1802 49.3567 44.4314 50.9634 43.112 52.0646L42.6663 52.4437V57.1014C42.6663 57.1014 42.6306 57.1736 42.5949 57.1736C42.5593 57.1736 42.5236 57.1375 42.5236 57.1014V52.7867L40.9546 53.22C40.4019 53.3644 39.9383 53.4366 39.4926 53.4366C39.0469 53.4366 38.6011 53.3644 38.0484 53.22L36.4794 52.7867V57.1014C36.4794 57.1014 36.4437 57.1736 36.4081 57.1736C36.3724 57.1736 36.3367 57.1375 36.3367 57.1014V52.4437L35.891 52.0646C34.5716 50.9453 33.8228 49.3567 33.8228 47.6778C33.8228 47.6417 33.8584 47.6056 33.8941 47.6056C33.9298 47.6056 33.9654 47.6417 33.9654 47.6778C33.9654 50.7648 36.4437 53.2922 39.5104 53.2922C42.5771 53.2922 45.0554 50.7829 45.0554 47.6778Z" fill="white"/>
<path d="M65.6665 25.2199C65.9161 25.2199 66.1836 25.1477 66.4154 24.9853L65.613 23.9201C59.7114 15.2006 49.9586 10.0014 39.5283 10.0014C22.0909 10.0014 7.91635 24.3534 7.91635 42.0091C7.91635 59.6648 22.0909 74.0168 39.5283 74.0168C55.254 74.0168 68.7154 62.102 70.8193 46.3057L71.0689 43.9588L68.965 45.0239C68.965 45.0239 68.9293 44.9517 68.9472 44.9156L71.3542 41.287H71.479L73.5294 45.1323C73.5294 45.1684 73.5294 45.2225 73.4937 45.2406L73.4046 45.2045L71.5146 41.8466L71.0867 45.6919C69.2503 61.9214 55.6998 74.1793 39.5461 74.1793C22.0374 74.1793 7.79155 59.7551 7.79155 42.0272C7.79155 24.2992 22.0018 9.8389 39.5283 9.8389C50.0121 9.8389 59.8006 15.0742 65.7378 23.8299C65.7557 23.866 65.7378 23.9021 65.72 23.9382L66.4332 24.9853C67.0394 24.57 67.182 23.7396 66.772 23.1258C60.6029 14.0272 50.4222 8.5752 39.5283 8.5752C21.3242 8.5752 6.50781 23.5591 6.50781 41.9911C6.50781 60.423 21.3242 75.4069 39.5105 75.4069C56.4308 75.4069 70.4092 62.445 72.2813 45.8002C72.5309 46.2335 72.9767 46.4862 73.4224 46.4862C73.6364 46.4862 73.8503 46.4321 74.0464 46.3237C74.6883 45.9627 74.9379 45.1503 74.5813 44.5004L72.5309 40.6551C72.317 40.2399 71.8891 39.9691 71.4255 39.9511C71.4077 39.9511 71.3898 39.9511 71.372 39.9511C70.9263 39.9511 70.5162 40.1677 70.2666 40.5468L67.8596 44.1755C67.4495 44.7893 67.6099 45.6197 68.2161 46.0349C68.4301 46.1793 68.6797 46.2515 68.9115 46.2515C69.1255 46.2515 69.3394 46.1974 69.5355 46.1071C67.5386 61.1091 54.8439 72.717 39.4748 72.717C22.7328 72.717 9.11094 58.9247 9.11094 41.973C9.11094 25.0214 22.7863 11.2651 39.5283 11.2651C49.5485 11.2651 58.9091 16.2657 64.5789 24.6422C64.8285 25.0214 65.2564 25.2199 65.6665 25.2199Z" fill="white"/>
<path d="M21.2886 54.2125C21.039 53.8153 20.6111 53.6167 20.1832 53.6167C19.9336 53.6167 19.6839 53.6889 19.4522 53.8333L20.2545 54.9165C24.5514 61.4697 31.7546 65.3872 39.5283 65.3872C52.2765 65.3872 62.6355 54.8985 62.6355 41.9907C62.6355 29.0829 52.2765 18.5941 39.5283 18.5941C29.4902 18.5941 20.6646 25.0751 17.58 34.6973L16.3676 38.7773L15.3157 34.8778C15.3157 34.8778 15.3157 34.8056 15.387 34.8056C15.387 34.8056 15.4227 34.8056 15.4405 34.8056L16.8669 36.3762L17.5444 34.3543C20.7359 24.8404 29.5616 18.4317 39.5462 18.4317C52.3657 18.4317 62.796 28.9926 62.796 41.9726C62.796 54.9526 52.3657 65.5136 39.5462 65.5136C31.7368 65.5136 24.4801 61.578 20.1653 54.9707C20.1475 54.9346 20.1653 54.8985 20.1832 54.8624L19.4878 53.8153C18.8816 54.2305 18.7033 55.0609 19.1134 55.6747C23.6778 62.6251 31.3089 66.7773 39.5462 66.7773C53.061 66.7773 64.0441 55.6567 64.0441 41.9726C64.0441 28.2885 53.0432 17.168 39.5462 17.168C28.8662 17.168 19.6839 24.0281 16.3676 33.9391C16.118 33.6683 15.7614 33.4878 15.387 33.4878C15.28 33.4878 15.1552 33.4878 15.0482 33.5419C14.3351 33.7405 13.925 34.4807 14.1211 35.1847L15.2622 39.391C15.387 39.8424 15.7258 40.2034 16.1715 40.3298C16.2963 40.3659 16.4033 40.384 16.5281 40.384C16.8669 40.384 17.1878 40.2576 17.4374 40.0229L20.5933 37.0442C21.1281 36.5387 21.1638 35.6902 20.6467 35.1486C20.3793 34.8598 20.0405 34.7334 19.6839 34.7334C19.363 34.7334 19.0421 34.8598 18.7925 35.0945C21.6809 26.1041 29.936 19.8578 39.5462 19.8578C51.599 19.8578 61.4053 29.7869 61.4053 41.9907C61.4053 54.1944 51.599 64.1235 39.5462 64.1235C32.2003 64.1235 25.3894 60.4226 21.3243 54.2125H21.2886ZM19.7196 36.0332C19.7196 36.0332 19.7374 36.1054 19.7196 36.1415L16.5281 39.1383L16.4568 39.0842L19.7196 36.0332Z" fill="white"/>
<path d="M21.2886 54.213C21.039 53.8158 20.6111 53.6172 20.1832 53.6172C19.9336 53.6172 19.684 53.6894 19.4522 53.8338C18.846 54.2491 18.6677 55.0795 19.0778 55.6933C23.6421 62.6436 31.2732 66.7958 39.5105 66.7958C53.0254 66.7958 64.0084 55.6752 64.0084 41.9912C64.0084 28.3071 53.0075 17.1865 39.5105 17.1865C28.8306 17.1865 19.6483 24.0466 16.332 33.9576C16.0824 33.6868 15.7258 33.5063 15.3514 33.5063C15.2444 33.5063 15.1196 33.5063 15.0126 33.5605C14.2994 33.7591 13.8893 34.4992 14.0855 35.2033L15.2266 39.4096C15.3514 39.8609 15.6901 40.222 16.1359 40.3484C16.2607 40.3845 16.3676 40.4025 16.4925 40.4025C16.8312 40.4025 17.1522 40.2761 17.4018 40.0415L20.5576 37.0627C21.0925 36.5573 21.1282 35.7088 20.6111 35.1672C20.3437 34.8783 20.0049 34.752 19.6483 34.752C19.3274 34.752 19.0064 34.8783 18.7568 35.113C21.6452 26.1227 29.9003 19.8764 39.5105 19.8764C51.5633 19.8764 61.3696 29.8055 61.3696 42.0092C61.3696 54.213 51.5633 64.142 39.5105 64.142C32.1647 64.142 25.3538 60.4412 21.2886 54.231V54.213ZM61.9937 41.9912C61.9937 29.4444 51.9021 19.2265 39.5105 19.2265C29.7399 19.2265 21.1638 25.5269 18.1506 34.8964L17.4196 37.2072L19.1847 35.5643C19.3095 35.438 19.4878 35.3838 19.6661 35.3838C19.8623 35.3838 20.0406 35.456 20.1832 35.6004C20.308 35.7449 20.3793 35.9254 20.3793 36.1059C20.3793 36.2865 20.2902 36.467 20.1654 36.5934L17.0095 39.5721C16.8847 39.6985 16.7064 39.7707 16.5281 39.7707C16.4568 39.7707 16.4033 39.7707 16.332 39.7526C16.1002 39.6804 15.9041 39.4999 15.8506 39.2652L14.7095 35.0589C14.6025 34.6798 14.8343 34.3006 15.1909 34.1923C15.2444 34.1923 15.3157 34.1743 15.3692 34.1743C15.5653 34.1743 15.7436 34.2645 15.8862 34.409L16.5994 35.2033L16.9382 34.1923C20.201 24.4077 29.2941 17.8364 39.5283 17.8364C52.6866 17.8364 63.4022 28.6862 63.4022 42.0092C63.4022 55.3322 52.6866 66.182 39.5283 66.182C31.505 66.182 24.0522 62.1382 19.6126 55.3503C19.3987 55.0253 19.4878 54.5921 19.8088 54.3754C19.9157 54.3032 20.0584 54.2491 20.201 54.2491C20.4328 54.2491 20.6646 54.3754 20.7894 54.556C24.9794 60.9467 31.9864 64.7558 39.5283 64.7558C51.9199 64.7558 62.0115 54.5379 62.0115 41.9912H61.9937Z" fill="white"/>
<path d="M39.5283 52.0285C37.1569 52.0285 35.2491 50.0788 35.2491 47.6958C35.2491 46.9557 34.6608 46.3599 33.9298 46.3599C33.1987 46.3599 32.6104 46.9557 32.6104 47.6958C32.6104 49.8622 33.6088 51.7758 35.1243 53.0575V57.1194C35.1243 57.8596 35.7127 58.4553 36.4437 58.4553C37.1747 58.4553 37.7631 57.8596 37.7631 57.1194V54.4656C38.3337 54.6281 38.922 54.7364 39.5461 54.7364C40.1701 54.7364 40.7585 54.6281 41.329 54.4656V57.1194C41.329 57.8596 41.9174 58.4553 42.6484 58.4553C43.3795 58.4553 43.9678 57.8596 43.9678 57.1194V53.0575C45.4833 51.7758 46.4818 49.8622 46.4818 47.6958C46.4818 43.8145 43.3616 40.6733 39.5461 40.6733C37.1747 40.6733 35.267 38.7235 35.267 36.3406C35.267 33.9576 37.1926 32.0079 39.5461 32.0079C41.8996 32.0079 43.8252 33.9576 43.8252 36.3406C43.8252 37.0807 44.4136 37.6765 45.1446 37.6765C45.8756 37.6765 46.464 37.0807 46.464 36.3406C46.464 34.1742 45.4655 32.2606 43.95 30.9789V26.917C43.95 26.1768 43.3616 25.5811 42.6306 25.5811C41.8996 25.5811 41.3112 26.1768 41.3112 26.917V29.5707C40.7407 29.4083 40.1523 29.2999 39.5283 29.2999C38.9042 29.2999 38.3158 29.4083 37.7453 29.5707V26.917C37.7453 26.1768 37.1569 25.5811 36.4259 25.5811C35.6949 25.5811 35.1065 26.1768 35.1065 26.917V30.9789C33.591 32.2606 32.5925 34.1742 32.5925 36.3406C32.5925 40.2219 35.7127 43.3631 39.5283 43.3631C41.8996 43.3631 43.8074 45.3128 43.8074 47.6958C43.8074 50.0788 41.8818 52.0285 39.5283 52.0285ZM44.4314 47.6778C44.4314 44.9337 42.2205 42.6952 39.5104 42.6952C36.0336 42.6952 33.1987 39.8248 33.1987 36.3045C33.1987 34.445 34.0367 32.6578 35.4809 31.4302L35.7127 31.2316V26.8809C35.7127 26.4837 36.0336 26.1768 36.4081 26.1768C36.7825 26.1768 37.1034 26.5018 37.1034 26.8809V30.3651L37.8879 30.1484C38.4941 29.986 39.0112 29.9137 39.5104 29.9137C40.0097 29.9137 40.5089 29.986 41.1329 30.1484L41.9174 30.3651V26.8809C41.9174 26.4837 42.2384 26.1768 42.6128 26.1768C42.9872 26.1768 43.3081 26.5018 43.3081 26.8809V31.2316L43.5399 31.4302C45.0019 32.6578 45.8221 34.445 45.8221 36.3045C45.8221 36.7016 45.5012 37.0085 45.1268 37.0085C44.7523 37.0085 44.4314 36.6836 44.4314 36.3045C44.4314 33.5604 42.2205 31.3219 39.5104 31.3219C36.8003 31.3219 34.5894 33.5604 34.5894 36.3045C34.5894 39.0485 36.8003 41.2871 39.5104 41.2871C42.9872 41.2871 45.8221 44.1575 45.8221 47.6778C45.8221 49.5372 44.9841 51.3244 43.5399 52.552L43.3081 52.7506V57.1014C43.3081 57.4985 42.9872 57.8054 42.6128 57.8054C42.2384 57.8054 41.9174 57.4805 41.9174 57.1014V53.6172L41.1329 53.8338C40.5267 53.9963 40.0097 54.0685 39.5104 54.0685C39.0112 54.0685 38.512 53.9963 37.8879 53.8338L37.1034 53.6172V57.1014C37.1034 57.4985 36.7825 57.8054 36.4081 57.8054C36.0336 57.8054 35.7127 57.4805 35.7127 57.1014V52.7506L35.4809 52.552C34.0189 51.3244 33.1987 49.5372 33.1987 47.6778C33.1987 47.2806 33.5197 46.9737 33.8941 46.9737C34.2685 46.9737 34.5894 47.2987 34.5894 47.6778C34.5894 50.4218 36.8003 52.6604 39.5104 52.6604C42.2205 52.6604 44.4314 50.4218 44.4314 47.6778Z" fill="white"/>
<path d="M39.5284 0C22.4655 0 7.34597 10.3623 0.998619 26.3933C0.731174 27.0793 1.05211 27.8556 1.72963 28.1444C1.8901 28.2166 2.05057 28.2347 2.22886 28.2347C2.74592 28.2347 3.24515 27.9097 3.45911 27.3862C9.39637 12.3843 23.5531 2.68988 39.5284 2.68988C60.9418 2.68988 78.3614 20.3275 78.3614 42.009C78.3614 63.6905 60.9418 81.3282 39.5284 81.3282C24.5159 81.3282 11.1437 72.7892 4.65369 59.3217C4.86765 59.4481 5.0816 59.5023 5.31339 59.5023C5.75913 59.5023 6.16921 59.2856 6.41883 58.8704C6.81108 58.2386 6.61495 57.4081 5.99091 57.029L2.33584 54.7183C2.12189 54.5738 1.87227 54.5197 1.64049 54.5197C1.42653 54.5197 1.2304 54.5738 1.03428 54.6641C0.624196 54.8807 0.338922 55.2959 0.303263 55.7653L0.000159367 60.08C-0.0533295 60.8201 0.499389 61.47 1.2304 61.5242C1.26606 61.5242 1.30172 61.5242 1.33738 61.5242C1.81878 61.5242 2.24669 61.2534 2.47848 60.8382C9.48552 75.0097 23.6244 83.982 39.5284 83.982C62.4039 83.982 81.0002 65.1348 81.0002 41.991C81.0002 18.8472 62.386 0 39.5284 0ZM39.5284 83.3682C23.9632 83.3682 9.96692 74.6306 3.0312 60.5674L2.51414 59.5203L1.92576 60.5313C1.80095 60.7479 1.587 60.8923 1.28389 60.8923C1.1056 60.8923 0.9273 60.784 0.802493 60.6576C0.677685 60.5132 0.624196 60.3327 0.642026 60.1341L0.962959 55.7834C0.980789 55.5306 1.12343 55.314 1.33738 55.2057C1.42653 55.1515 1.55134 55.1335 1.65831 55.1335C1.78312 55.1335 1.90793 55.1696 2.03274 55.2418L5.68781 57.5526C5.84828 57.6609 5.95525 57.8053 5.99091 57.9858C6.02657 58.1663 5.99091 58.3649 5.90177 58.5274C5.77696 58.726 5.563 58.8524 5.31339 58.8524C5.18858 58.8524 5.06377 58.8163 4.9568 58.7621L3.19166 57.7511L4.08314 59.5925C10.7336 73.3849 24.3019 81.96 39.5106 81.96C61.2628 81.96 78.9676 64.0335 78.9676 42.009C78.9676 19.9845 61.2806 2.05803 39.5284 2.05803C23.2857 2.05803 8.91497 11.8968 2.87073 27.1515C2.76375 27.4223 2.51414 27.6028 2.22886 27.6028C2.13971 27.6028 2.05057 27.6028 1.96142 27.5487C1.78312 27.4765 1.65831 27.3501 1.587 27.1696C1.51568 26.989 1.51568 26.8085 1.587 26.628C7.82737 10.8317 22.7151 0.63185 39.5284 0.63185C62.0473 0.63185 80.3761 19.1902 80.3761 41.991C80.3761 64.7918 62.0473 83.3501 39.5284 83.3501V83.3682Z" fill="white"/>
<path d="M65.6665 25.2199C65.9161 25.2199 66.1836 25.1477 66.4154 24.9853C67.0216 24.57 67.1642 23.7396 66.7541 23.1258C60.5851 14.0272 50.4044 8.5752 39.5105 8.5752C21.3242 8.5752 6.50781 23.5591 6.50781 41.9911C6.50781 60.423 21.3242 75.4069 39.5105 75.4069C56.4308 75.4069 70.4092 62.445 72.2813 45.8002C72.5309 46.2335 72.9767 46.4862 73.4224 46.4862C73.6364 46.4862 73.8503 46.4321 74.0464 46.3237C74.6883 45.9627 74.9379 45.1503 74.5813 44.5004L72.5309 40.6551C72.317 40.2399 71.8891 39.9691 71.4255 39.9511C71.4077 39.9511 71.3898 39.9511 71.372 39.9511C70.9263 39.9511 70.5162 40.1677 70.2666 40.5468L67.8596 44.1755C67.4495 44.7893 67.6099 45.6197 68.2161 46.0349C68.4301 46.1793 68.6797 46.2515 68.9115 46.2515C69.1255 46.2515 69.3394 46.1974 69.5355 46.1071C67.5386 61.1091 54.8439 72.717 39.4748 72.717C22.7328 72.717 9.11094 58.9247 9.11094 41.973C9.11094 25.0214 22.7863 11.2651 39.5283 11.2651C49.5485 11.2651 58.9091 16.2657 64.5789 24.6422C64.8285 25.0214 65.2564 25.2199 65.6665 25.2199ZM39.5283 10.6332C22.4475 10.6332 8.54039 24.7145 8.54039 42.0091C8.54039 59.3038 22.4475 73.385 39.5283 73.385C54.9509 73.385 68.127 61.7048 70.1952 46.2154L70.3557 45.0239L69.3038 45.5475C69.1968 45.6016 69.072 45.6377 68.965 45.6377C68.8402 45.6377 68.7154 45.6016 68.6084 45.5294C68.2875 45.3128 68.1983 44.8795 68.4123 44.5546L70.8193 40.9259C70.9441 40.7274 71.1759 40.619 71.4255 40.619C71.6751 40.619 71.8891 40.7635 72.0139 40.9981L74.0643 44.8434C74.1534 45.0059 74.1712 45.2045 74.1178 45.385C74.0643 45.5655 73.9395 45.7099 73.779 45.8002C73.672 45.8544 73.565 45.8905 73.4402 45.8905C73.1906 45.8905 72.9588 45.7461 72.834 45.5294L71.8891 43.8505L71.6751 45.7641C69.803 62.3186 55.985 74.8112 39.5283 74.8112C21.6808 74.8112 7.14968 60.0981 7.14968 42.0272C7.14968 23.9562 21.663 9.20705 39.5283 9.20705C50.2082 9.20705 60.2106 14.5326 66.2549 23.4688C66.4688 23.7938 66.3975 24.227 66.0766 24.4617C65.9518 24.552 65.827 24.5881 65.6843 24.5881C65.4526 24.5881 65.2386 24.4798 65.1138 24.2812C59.3192 15.7241 49.7625 10.6332 39.5461 10.6332H39.5283Z" fill="white"/>
</g>
<defs>
<clipPath id="clip0_1142_595">
<rect width="81" height="84" fill="white"/>
</clipPath>
</defs>
</svg>
